<?xml version="1.0" encoding="UTF-8" standalone="no"?>
<!-- Created with Inkscape (http://www.inkscape.org/) -->

<svg
   width="1162.6328"
   height="580.88062"
   viewBox="0 0 307.61326 153.69133"
   version="1.1"
   id="svg1"
   inkscape:version="1.3-beta (cedbd6c, 2023-05-28)"
   sodipodi:docname="directed-graph-example.svg"
   inkscape:export-filename="directed-graph-example.png"
   inkscape:export-xdpi="300"
   inkscape:export-ydpi="300"
   xmlns:inkscape="http://www.inkscape.org/namespaces/inkscape"
   xmlns:sodipodi="http://sodipodi.sourceforge.net/DTD/sodipodi-0.dtd"
   xmlns="http://www.w3.org/2000/svg"
   xmlns:svg="http://www.w3.org/2000/svg">
  <sodipodi:namedview
     id="namedview1"
     pagecolor="#ffffff"
     bordercolor="#666666"
     borderopacity="1.0"
     inkscape:showpageshadow="2"
     inkscape:pageopacity="0.0"
     inkscape:pagecheckerboard="0"
     inkscape:deskcolor="#d1d1d1"
     inkscape:document-units="mm"
     inkscape:zoom="0.4698447"
     inkscape:cx="633.18795"
     inkscape:cy="308.61261"
     inkscape:window-width="1440"
     inkscape:window-height="900"
     inkscape:window-x="0"
     inkscape:window-y="0"
     inkscape:window-maximized="0"
     inkscape:current-layer="layer1" />
  <defs
     id="defs1">
    <inkscape:path-effect
       effect="bspline"
       id="path-effect27"
       is_visible="true"
       lpeversion="1.3"
       weight="33.333333"
       steps="2"
       helper_size="0"
       apply_no_weight="true"
       apply_with_weight="true"
       only_selected="false"
       uniform="false" />
    <inkscape:path-effect
       effect="bspline"
       id="path-effect26"
       is_visible="true"
       lpeversion="1.3"
       weight="33.333333"
       steps="2"
       helper_size="0"
       apply_no_weight="true"
       apply_with_weight="true"
       only_selected="false"
       uniform="false" />
    <inkscape:path-effect
       effect="bspline"
       id="path-effect25"
       is_visible="true"
       lpeversion="1.3"
       weight="33.333333"
       steps="2"
       helper_size="0"
       apply_no_weight="true"
       apply_with_weight="true"
       only_selected="false"
       uniform="false" />
    <inkscape:path-effect
       effect="bspline"
       id="path-effect24"
       is_visible="true"
       lpeversion="1.3"
       weight="33.333333"
       steps="2"
       helper_size="0"
       apply_no_weight="true"
       apply_with_weight="true"
       only_selected="false"
       uniform="false" />
    <inkscape:path-effect
       effect="bspline"
       id="path-effect23"
       is_visible="true"
       lpeversion="1.3"
       weight="33.333333"
       steps="2"
       helper_size="0"
       apply_no_weight="true"
       apply_with_weight="true"
       only_selected="false"
       uniform="false" />
    <marker
       style="overflow:visible"
       id="marker12"
       refX="0"
       refY="0"
       orient="auto-start-reverse"
       inkscape:stockid="Concave triangle arrow"
       markerWidth="7.6999998"
       markerHeight="5.5999999"
       viewBox="0 0 7.7 5.6"
       inkscape:isstock="true"
       inkscape:collect="always"
       preserveAspectRatio="xMidYMid">
      <path
         transform="scale(0.7)"
         d="M -2,-4 9,0 -2,4 c 2,-2.33 2,-5.66 0,-8 z"
         style="fill:context-stroke;fill-rule:evenodd;stroke:none"
         id="path12" />
    </marker>
    <marker
       style="overflow:visible"
       id="marker6"
       refX="0"
       refY="0"
       orient="auto-start-reverse"
       inkscape:stockid="Concave triangle arrow"
       markerWidth="7.6999998"
       markerHeight="5.5999999"
       viewBox="0 0 7.7 5.6"
       inkscape:isstock="true"
       inkscape:collect="always"
       preserveAspectRatio="xMidYMid">
      <path
         transform="scale(0.7)"
         d="M -2,-4 9,0 -2,4 c 2,-2.33 2,-5.66 0,-8 z"
         style="fill:context-stroke;fill-rule:evenodd;stroke:none"
         id="path6" />
    </marker>
    <marker
       style="overflow:visible"
       id="ConcaveTriangle"
       refX="0"
       refY="0"
       orient="auto-start-reverse"
       inkscape:stockid="Concave triangle arrow"
       markerWidth="7.6999998"
       markerHeight="5.5999999"
       viewBox="0 0 7.7 5.6"
       inkscape:isstock="true"
       inkscape:collect="always"
       preserveAspectRatio="xMidYMid">
      <path
         d="M -2,-4 9,0 -2,4 c 2,-2.33 2,-5.66 0,-8 z"
         style="fill:context-stroke;fill-rule:evenodd;stroke:none"
         id="path7"
         transform="scale(0.7)" />
    </marker>
    <marker
       style="overflow:visible"
       id="ConcaveTriangle-3"
       refX="0"
       refY="0"
       orient="auto-start-reverse"
       inkscape:stockid="Concave triangle arrow"
       markerWidth="7.6999998"
       markerHeight="5.5999999"
       viewBox="0 0 7.7 5.6"
       inkscape:isstock="true"
       inkscape:collect="always"
       preserveAspectRatio="xMidYMid">
      <path
         d="M -2,-4 9,0 -2,4 c 2,-2.33 2,-5.66 0,-8 z"
         style="fill:context-stroke;fill-rule:evenodd;stroke:none"
         id="path7-6"
         transform="scale(0.7)" />
    </marker>
    <clipPath
       clipPathUnits="userSpaceOnUse"
       id="clipPath64">
      <path
         id="path65"
         style="fill:#ff0000;fill-opacity:1;fill-rule:nonzero;stroke:none;stroke-width:0.264583"
         d="m 266.32845,66.472427 c 0.0324,0.12346 0.0521,0.248605 0.0579,0.374139 0.1361,-2.51e-4 0.2735,-0.0027 0.40722,-0.0052 0.33565,-0.0086 0.67146,-0.0123 1.00719,-0.0062 0.11716,-0.0013 0.23418,-0.0011 0.35139,-0.0011 0.36002,-0.0052 0.71644,-0.0024 1.07487,0.04186 0.0985,0.01214 0.19487,0.03549 0.2925,0.05323 0.17465,0.03365 0.34766,0.07408 0.51829,0.121955 -0.32274,-0.0213 -0.5956,-0.03065 -0.48059,-0.01344 0.2018,0.03035 0.4078,0.03221 0.61082,0.05219 -0.0427,-0.0131 -0.0852,-0.02668 -0.12814,-0.03876 0.50573,0.03348 1.12366,0.09703 0.58341,0.136427 0.31999,0.115779 0.60409,0.323151 0.86299,0.535884 -0.0109,-0.01008 -0.0212,-0.0204 -0.032,-0.03049 0,-7.93e-4 -0.003,-0.0037 -0.003,-0.0031 0.11131,0.06058 0.21326,0.137525 0.3142,0.214974 -0.0101,-0.0071 -0.0196,-0.01434 -0.0294,-0.02119 -0.0201,-0.01373 -0.0777,-0.04727 -0.0765,-0.04496 1.9e-4,2.62e-4 0,0.0016 0.004,0.0036 0.0439,0.02987 0.089,0.05822 0.13382,0.08682 0.003,0.0019 0.005,0.0034 0.007,0.0052 0.003,0.0016 0.005,0.0029 0.007,0.0047 0.12147,0.07746 0.24326,0.154217 0.35965,0.238744 0.003,-0.01019 0.0328,0.0029 0.077,0.02945 -0.24273,-0.192789 0.31732,0.171926 0.66974,0.411345 0.0156,0.0063 0.0282,0.01159 0.0382,0.01551 0.0834,0.02815 0.1651,0.06394 0.24548,0.102835 -0.0497,-0.02003 -0.0964,-0.03817 -0.14833,-0.05788 0.0329,0.019 0.0859,0.05148 0.20153,0.119888 0.0429,0.0091 0.0677,0.01296 0.0822,0.01344 -0.0259,-0.01281 -0.0516,-0.02596 -0.0775,-0.03876 -0.031,-0.01378 -0.0622,-0.0271 -0.093,-0.04134 -0.0135,-0.0063 0.0277,0.01066 0.0419,0.01601 0.0169,0.0084 0.0342,0.01688 0.0511,0.02532 0.029,0.01288 0.0578,0.02603 0.0868,0.03876 0,-1.11e-4 0.003,-1.58e-4 0.003,-5.29e-4 -0.0464,-0.02484 -0.0935,-0.04866 -0.14107,-0.07183 0.0883,0.03566 0.158,0.06648 0.14107,0.07183 0.006,0.0033 0.0124,0.007 0.0185,0.01034 0.0935,0.04092 0.18651,0.08314 0.27803,0.128157 0.10557,0.03704 0.21145,0.0745 0.31522,0.116271 0.0828,0.03331 0.16219,0.07411 0.23977,0.118856 0.27252,0.07878 0.353,0.09903 0.4718,0.158647 0.337,0.09146 0.35087,0.08799 0.54158,0.189134 -0.16778,-0.05667 -0.32959,-0.108275 -0.44752,-0.141075 0.008,0.0043 0.0212,0.01135 0.03,0.01603 -0.0109,-0.0056 -0.0217,-0.01114 -0.0325,-0.01654 -0.1819,-0.05047 -0.25742,-0.05742 -0.0661,0.03049 0.076,0.03494 0.15333,0.06524 0.23204,0.09302 -0.0586,-7.93e-4 -0.11737,0.0033 -0.17624,0.01138 0.35568,0.110733 0.70506,0.275359 1.07281,0.320907 0.0206,0.0026 0.0381,0.0037 0.0532,0.0047 -0.0579,-0.03457 -0.11581,-0.0693 -0.17362,-0.10387 -0.061,-0.01974 -0.12276,-0.03742 -0.18449,-0.05529 -0.0394,-0.02011 -0.0499,-0.02611 -0.0822,-0.04289 0.0169,0.0094 0.0342,0.01897 0.0511,0.02946 0.004,0.0024 0.007,0.005 0.0103,0.0072 -0.19074,-0.05481 -0.38399,-0.105831 -0.57052,-0.171564 0.15219,0.0019 0.30324,0.03376 0.45167,0.105418 -0.0564,-0.0296 -0.1284,-0.06668 -0.16539,-0.0863 0.44233,0.149542 0.91202,0.33464 0.66355,0.318328 0.0307,0.01831 0.0574,0.03627 0.0863,0.05426 0.28784,-0.184846 0.57015,-0.320244 0.84336,-0.414962 0.37367,-0.36581 0.84042,-0.560231 1.32138,-0.567407 1.02338,-0.01527 2.11079,0.817372 2.50423,2.647384 0.01,-0.0024 0.0201,-0.0036 0.03,-0.0036 0.0823,0 0.16434,0.08145 0.16434,0.24443 V 72.224 72.402801 c 0.004,0.0024 0.007,0.0088 0.0185,0.01913 0.0241,-0.01008 0.048,-0.0098 0.0713,-0.0031 0.0371,-0.01603 0.0807,-0.03122 0.12197,-0.04237 0.11772,-0.117491 0.29295,-0.240035 0.11936,-0.04031 0.0768,0.05898 0.13798,0.06805 0.13851,0.164849 0.0183,6.6e-5 0.0361,0.0021 0.0517,0.0078 -0.003,-3.2e-5 -0.0124,-0.0013 -0.0161,-0.0016 -0.0122,0.0021 -0.0241,0.0076 -0.0356,0.01601 3e-5,0.0068 -1.3e-4,0.01386 0,0.02066 0.0391,0.0028 0.0634,0.008 0.0765,0.01498 0,0.0038 -0.003,0.0075 -0.004,0.01138 0.003,1.67e-4 0.004,2.14e-4 0.006,5.29e-4 0,-0.003 0.003,-0.0058 0.003,-0.0088 0,-0.0011 -0.003,-0.0021 -0.004,-0.0031 0.007,-0.02368 0.0151,-0.04625 0.0238,-0.0677 0.0132,-0.04151 0.03,-0.08138 0.0506,-0.119888 0,-0.0089 0.003,-0.01818 0.006,-0.02635 0.003,-0.0079 0.0135,-0.02365 0.0212,-0.03721 0.008,-0.01384 0.0127,-0.02553 0.0212,-0.03824 0.003,-0.0052 0.003,-0.01042 0.005,-0.0155 0.007,-0.01847 0.0251,-0.03059 0.0403,-0.04289 0.0306,-0.02461 0.0533,-0.03534 0.0724,-0.03514 0.05,5.29e-4 0.0759,0.07558 0.1607,0.16795 0,-0.0099 0.004,-0.01934 0.008,-0.02842 0.009,-0.01945 0.0119,0.0085 0.0103,0.04806 0.007,0.0068 0.0138,0.01378 0.0212,0.02066 -0.0169,0.0348 -0.0201,0.04395 -0.0279,0.05426 -0.006,0.04497 -0.0159,0.0779 -0.0265,0.04961 0,0.0011 -0.003,0.0021 -0.003,0.0031 0,0.0029 -0.003,0.0058 -0.003,0.0088 -0.007,0.03451 -0.0288,0.06425 -0.0465,0.09457 -0.007,0.03466 -0.0135,0.07048 -0.0274,0.103351 -1.3e-4,2.65e-4 0,7.94e-4 0,0.0011 0.022,0.01154 0.0421,0.02209 0.0584,0.03204 0.0668,-0.06019 0.0404,-0.04723 0.093,-0.0739 0.006,-0.003 0.0222,-0.014 0.018,-0.0088 -0.0151,0.0191 -0.0278,0.03349 -0.0393,0.04599 0.013,0.0061 0.0316,0.03538 0.0563,0.09043 0.0416,-0.04763 0.0829,-0.09555 0.12198,-0.145212 -0.004,-0.01053 -0.007,-0.02106 -0.0109,-0.03152 -0.003,-0.0051 0.0274,0.0108 0.0274,0.01085 -0.005,0.007 -0.0116,0.01373 -0.0164,0.02066 0.006,0.01659 0.0116,0.03299 0.0175,0.04961 0.0101,-0.01265 0.0204,-0.02598 0.0305,-0.04031 0.0246,0.04659 0.0717,0.105806 0.046,0.166396 -0.004,0.0096 -0.009,0.01847 -0.0146,0.02739 0.003,0.0035 0.004,0.0069 0.006,0.01035 0.0473,-0.09389 0.11398,-0.13725 0.17415,-0.140044 0.0484,-0.0024 0.0911,0.02273 0.11731,0.06718 0.007,-0.0011 0.0138,-0.0016 0.0206,-0.0016 0.10105,0.0013 0.17936,0.117446 0.10748,0.29714 -0.0109,0.02744 -0.0212,0.05544 -0.0325,0.08268 -0.0164,0.03907 -0.0492,0.130572 -0.0925,0.171564 v 5.29e-4 c -0.003,0.0094 -0.008,0.01704 -0.0156,0.02429 -0.008,0.0434 -0.022,0.09644 -0.045,0.123505 0,0.0048 0.003,0.0098 0.003,0.01447 0.0904,0.03002 0.0525,0.0629 -0.0254,0.08992 -0.0109,0.01595 -0.0246,0.03121 -0.0403,0.04548 0,0.01196 0,0.02935 -0.003,0.05478 -0.0119,0.01757 -0.0243,0.03681 -0.0367,0.05581 0,0.0026 0,0.0059 0.003,0.0078 2.7e-4,0.0016 2.1e-4,0.0036 0,0.0062 0,-0.0039 -0.003,-0.008 -0.003,-0.01188 -0.006,0.0096 -0.0132,0.01897 -0.0191,0.02791 -0.007,0.03623 -0.0106,0.05807 -0.0114,0.06976 0,0.0035 0.003,0.0071 0.003,0.01085 0.007,-0.0053 0.0285,-0.07017 0.031,-0.0956 0,0.004 0.003,0.0079 0.003,0.01188 0,0.0067 0,0.01386 0,0.02066 0,0.04987 0,0.03907 -0.0315,0.07906 0.004,0.02736 0.006,0.05573 -0.006,0.0708 -0.0336,0.0452 -0.0787,0.08052 -0.11628,0.122473 -0.003,0.0024 0.007,-5.29e-4 0.009,-0.0026 0.0228,-0.02138 0.0437,-0.04481 0.0656,-0.06718 0.0183,-0.0024 0,0.06134 -0.0217,0.114205 0.005,0.01751 0.009,0.03534 0.003,0.05167 -0.0164,0.0455 -0.0392,0.08815 -0.0589,0.132292 -0.0101,0.0083 -0.0111,0.0091 -0.0175,0.01447 -0.006,0.02225 -0.013,0.05425 -0.0233,0.09612 0,0.0058 0,0.01185 0,0.01757 -0.0198,0.05017 -0.0352,0.141131 -0.0971,0.170532 -0.0167,0.0079 0.0292,-0.02416 0.0382,-0.04031 0.01,-0.01715 0.0306,-0.06927 0.0156,-0.05685 -0.0103,0.0085 -0.0196,0.01659 -0.0284,0.02429 1.9e-4,0.0013 0,0.0024 0,0.0036 0,-0.0011 0,-0.0021 0,-0.0031 0,5.3e-4 -0.003,0.0013 -0.003,0.0021 -0.005,0.01998 0,0.04646 -0.0169,0.05736 -0.008,0.0054 -0.0172,0.01005 -0.0259,0.01447 -0.005,0.0109 -0.0116,0.02296 -0.018,0.03566 0,0.0061 0.003,0.01328 0.003,0.0186 0.008,-0.0123 0.0175,-0.02442 0.0259,-0.03669 v 0 c 1.8e-4,0.0021 0,0.0089 -0.003,0.01188 -0.003,0.01296 -0.003,0.02787 -0.0103,0.03876 -0.008,0.01087 -0.0127,0.01775 -0.0175,0.02479 -0.003,0.0064 -0.005,0.01265 -0.008,0.0186 -5e-5,1.72e-4 2e-5,2.64e-4 0,5.29e-4 -0.004,0.02178 -0.0109,0.04537 -0.0249,0.06098 -0.004,0.0258 -0.0153,0.0504 -0.0289,0.07338 1.6e-4,0.0019 0,0.0038 0,0.0057 0.005,0.08024 -0.0153,0.101378 -0.0491,0.09302 -0.0153,0.01794 -0.0332,0.03595 -0.0553,0.05685 -0.0185,0.01757 -0.0489,0.01524 -0.0734,0.02273 -0.029,0.0089 -0.0503,0.01257 -0.0656,0.01138 -0.003,7.93e-4 -0.003,0.0013 -0.004,0.0021 0.01,0.009 10e-5,0.0094 -0.0346,0.01291 0,1.27e-4 -1e-4,-1.27e-4 -0.003,0 -0.005,0.0013 -0.0103,0.0021 -0.0151,0.0031 -0.005,0.0013 -0.0103,0.003 -0.0156,0.0041 -0.007,0.0108 -0.0135,0.02178 -0.0201,0.03256 -0.0306,-5.29e-4 -0.11592,0.01757 -0.092,-0.0016 0.0303,-0.02384 0.0737,-0.02254 0.11213,-0.031 0,-7.94e-4 2.1e-4,-0.0019 0.003,-0.0026 -0.006,2.22e-4 -0.0124,-1.96e-4 -0.0185,-0.0021 -0.0954,-0.0011 -0.15986,-0.03662 -0.19068,-0.08423 0,0.0011 -0.003,0.0024 -0.003,0.0036 -0.004,0.0063 -0.006,-0.0062 -0.007,-0.0181 -0.003,-7.94e-4 -0.005,-0.0019 -0.007,-0.0026 0.007,0.02463 0.0164,0.0525 0.0249,0.08216 -0.022,-0.01355 -0.0434,-0.02678 -0.0594,-0.04651 -0.0196,-0.02389 -0.0164,-0.05994 -0.0269,-0.08888 0,-0.0016 -0.004,0.0029 -0.005,0.0016 -0.0106,-0.0177 -0.0209,-0.0709 -0.0238,-0.08165 0,-0.01638 -10e-5,-0.03316 -0.003,-0.04909 -0.003,-0.0114 0.003,0.02384 0,0.03514 -0.003,0.004 -0.006,-0.0063 -0.007,-0.01035 -0.007,-0.02495 -0.0127,-0.04656 -0.0164,-0.0677 -0.003,0.0024 -0.004,0.0045 -0.006,0.0067 -0.005,0.02662 -0.0169,0.05097 -0.0434,0.07338 -0.0119,0.01011 0.0209,-0.02447 0.0279,-0.03824 0.003,-0.0053 0.005,-0.01439 0.007,-0.02532 -0.0143,0.01529 -0.0383,0.04078 -0.0331,0.02687 0.0156,-0.0396 0.0272,-0.05895 0.0356,-0.06718 -8e-5,-0.0348 -0.008,-0.06779 -0.0262,-0.05943 -0.0116,0.005 -0.023,0.01058 -0.0336,0.01707 v 0.02532 c -0.003,2.15e-4 -0.004,7.94e-4 -0.006,0.0011 -0.0465,0.08251 -0.0865,0.132725 -0.11213,0.162779 -0.003,-0.01397 -0.006,-0.02789 -0.009,-0.04186 -0.0116,0.0236 -0.0235,0.0472 -0.0341,0.07131 0.005,-4.4e-5 0.0106,-2.54e-4 0.0161,-5.29e-4 -0.004,0.0054 -0.004,0.0075 0,0.0078 0.004,1.21e-4 0.0119,-0.0019 0.0238,-0.0057 -0.007,-0.0019 -0.0145,-0.0021 -0.0217,-0.0021 0.004,-0.0054 0.0127,-0.01529 0.0233,-0.02739 0.003,0.0093 0.004,0.0186 0.006,0.02791 -0.003,7.94e-4 -0.003,7.94e-4 -0.005,0.0016 v 5.3e-4 c 0.003,5.29e-4 0.003,0.0011 0.005,0.0016 0.003,5.29e-4 -0.014,0.0016 -0.0279,0.0036 -0.0119,0.0016 -0.022,0.0042 -0.0243,0.0036 -0.0116,0.02671 -0.023,0.05341 -0.0346,0.0801 -0.0339,0.07351 -0.0747,0.152947 -0.13745,0.207221 -0.0228,0.08706 -0.0374,0.07114 -0.292,0.04341 -0.0249,-0.0027 -0.0241,-0.04379 -0.03,-0.0677 -0.0103,-0.03931 -0.007,-0.06868 0.005,-0.09715 2.3e-4,-0.01879 0,-0.04345 0,-0.04857 v -0.167947 -0.04703 c -0.0151,0.0081 -0.0324,0.01802 -0.0414,0.02222 -0.064,0.01159 -0.0948,0.01736 -0.108,0.02016 0.0135,-0.0036 0.0298,-0.01032 -0.0568,-0.0062 0.004,0.0013 0.0183,0.005 0.0243,0.0062 0.003,5.29e-4 0.009,-0.0011 0.007,0 -0.0243,0.01228 -0.08,0.03518 -0.10853,0.04702 -0.0116,0.0047 -0.0236,0.0081 -0.0351,0.01085 0.0462,0.07126 0.0923,0.142685 0.13851,0.213939 0.0358,0.05525 -0.0773,0.116436 -0.13851,0.14056 -0.11819,0.04653 -0.22201,0.08967 -0.31988,0.131257 -0.042,-0.16706 -0.0814,-0.335094 -0.11988,-0.503327 -0.13462,0.178353 -0.25294,0.331346 -0.35811,0.46147 0.0323,0.09034 0.0563,0.164151 0.0703,0.224793 0.11541,-0.05346 0.24918,-0.114292 0.40566,-0.180866 0.009,0.0353 0.018,0.0707 0.0274,0.105936 -0.13663,0.07312 -0.30861,0.336479 -0.40978,0.219107 -0.005,-0.0053 -0.0106,-0.01074 -0.0146,-0.01601 0,0.003 -0.003,0.0058 -0.003,0.0088 -0.0346,-0.03149 -0.0674,-0.06238 -0.10128,-0.09354 0.009,-0.004 0.0153,-0.0072 0.0243,-0.01138 -0.0357,-0.04229 -0.0717,-0.08446 -0.10695,-0.127122 -0.01,0.01162 -0.0198,0.02299 -0.0295,0.0341 -0.16325,-0.151484 -0.31808,-0.298426 -0.46562,-0.440798 -0.006,0.182618 -0.0111,0.365186 -0.0159,0.547769 0.0353,-0.0077 0.0703,-0.01492 0.10594,-0.02066 0.0461,-0.0075 -0.0306,0.01392 -0.10594,0.03256 -0.003,0.07131 -0.005,0.142629 -0.007,0.213942 0,0.004 0,0.0078 0,0.01188 0.0731,-0.01569 0.14626,-0.03971 0.22479,-0.0708 -0.0779,0.06562 -0.14116,0.09918 -0.19172,0.100253 0.0227,-0.0013 0.0416,-0.0029 0.063,-0.0041 0.039,-0.01156 0.0769,-0.02151 0.11007,-0.02687 0.10144,-0.01635 0.30321,-0.02405 0.42169,-0.05219 -0.0848,0.04792 -0.25699,0.06236 -0.53176,0.07907 -0.16526,0.0492 -0.36253,0.12768 -0.43357,0.02222 0.0299,0.01029 0.0967,-0.01434 0.13488,-0.01188 0,-0.0038 1.1e-4,-0.0076 0.003,-0.01138 -0.0476,0.0011 -0.0976,-0.0011 -0.15193,-0.0057 h -0.003 c -0.0928,-0.0079 -0.19717,-0.0245 -0.32142,-0.04961 0.004,-0.031 0.008,-0.062 0.0124,-0.09302 -0.469,0.03583 -0.75682,-0.01934 -0.90435,-0.144177 -0.0544,-0.01421 -0.13658,-0.03651 -0.24961,-0.06563 -0.0598,-0.0013 -0.0834,-0.0072 -0.11059,-0.02016 0.014,0.0026 0.0281,0.0052 0.0424,0.0062 0.005,2.62e-4 0.0106,0.0013 0.0161,0.0016 -0.0262,-0.0066 -0.06,-0.01487 -0.0899,-0.02222 0.0111,0.0061 0.0212,0.01127 0.03,0.0155 -0.0447,-0.0079 -0.0882,-0.02148 -0.13229,-0.03204 -0.0308,-0.0074 -0.0612,-0.01709 -0.0915,-0.02635 -0.0106,-0.0032 -0.0417,-0.01333 -0.031,-0.01085 0.09,0.0208 0.15724,0.03727 0.22426,0.05375 -0.0251,-0.01347 -0.0586,-0.03126 -0.11832,-0.05633 -0.0983,-0.0046 -0.17661,-0.0088 -0.24908,-0.02066 0.0445,0.0034 0.13864,0.01024 0.2408,0.01757 -0.0262,-0.01082 -0.0566,-0.02334 -0.093,-0.03669 0.047,0.0045 0.0684,0.005 0.0718,0.0036 -0.004,-0.003 -0.0466,-0.01042 -0.1044,-0.01447 0.0101,0.0035 0.022,0.0075 0.031,0.01085 -0.0293,-0.0029 -0.0665,-0.0076 -0.11732,-0.01394 0.0305,-2.17e-4 0.0588,0.0013 0.0858,0.0031 -0.0302,-0.01077 -0.0625,-0.0222 -0.10028,-0.03462 -0.018,0.0077 -0.0351,0.01527 -0.0532,0.02273 0.004,7.93e-4 0.009,7.93e-4 0.014,0.0016 -0.009,5.29e-4 -0.0169,0.0011 -0.0254,0.0016 0,2.32e-4 -1.8e-4,7.93e-4 -0.003,0.0011 0.0156,-0.0011 0.0238,-0.0019 0.0289,-0.0021 0,7.2e-5 0,-7.4e-5 0.003,0 0,1.41e-4 0.003,2.54e-4 0.003,5.29e-4 0,1.2e-4 0.003,5.3e-4 0.003,5.3e-4 0,1.16e-4 0.003,5.29e-4 0.003,5.29e-4 h 0.003 c 0.0114,0.0016 0.0269,0.0038 0.0377,0.0052 -0.008,7.7e-5 -0.0148,1.56e-4 -0.0228,5.29e-4 -0.11714,-7.93e-4 -0.0481,-5.29e-4 -0.0646,-5.29e-4 -0.0106,0.0044 -0.0214,0.0086 -0.032,0.01291 0.032,0.0085 0.0629,0.01532 0.092,0.02016 -0.046,-0.0036 -0.0766,-0.0075 -0.10491,-0.01394 -0.0827,0.03291 -0.16671,0.06346 -0.25114,0.09198 -0.0521,0.01759 -0.20188,0.06727 -0.1664,0.05116 -0.11332,0.04659 -0.22823,0.086 -0.34933,0.09715 -0.29898,0.02753 -0.59806,-0.03141 -0.89762,-0.0677 0.003,0.01479 0.005,0.02965 0.008,0.04444 -0.0172,-0.0037 -0.0962,-0.01963 -0.1297,-0.02945 -0.0419,-0.01228 -0.16912,-0.03996 -0.12557,-0.03772 0.0822,0.0042 0.16484,0.01278 0.24702,0.02273 -0.0101,-0.04859 -0.019,-0.09712 -0.0284,-0.145727 -0.0556,0.0019 -0.10967,0.0035 -0.16952,0.0057 0.0563,-0.0034 0.11269,-0.0069 0.16899,-0.01035 5e-5,0.0013 1.9e-4,0.0026 0,0.0041 0.40185,-0.01246 0.68689,-0.01397 0.90125,-0.01447 h 0.003 c 0,-1.25e-4 0.003,-2.52e-4 0.003,-5.29e-4 0,-9.8e-5 0.003,-5.3e-4 0.003,-5.3e-4 v 0 c 0,-0.0011 0.003,-0.0024 0.0124,-0.0036 0.15187,-0.01725 0.30509,-0.01995 0.45784,-0.02687 -0.0413,0.0093 -0.0825,0.01754 -0.12454,0.02376 -0.0135,0.0021 -0.0302,0.0037 -0.0491,0.0052 0.0928,-0.0021 0.16039,-0.007 0.20359,-0.0181 0.009,-0.0036 0.0185,-0.0075 0.0274,-0.01138 -0.007,-2.46e-4 -0.0143,-0.0013 -0.0196,-0.0016 -0.0122,5.3e-4 -0.0243,0.0016 -0.0367,0.0021 0.005,-0.0011 0.009,-0.0021 0.0135,-0.0031 -0.0124,-0.0011 -0.0312,-0.0034 -0.0625,-0.0062 -0.004,-1.56e-4 -0.008,1.72e-4 -0.0124,0 -0.0431,-0.0019 -0.17172,-0.01466 -0.12867,-0.01138 0.07,0.0054 0.10978,0.0086 0.14108,0.01138 0.0275,0.0011 0.0549,0.0016 0.0822,0.0011 0.0214,-0.0051 0.0427,-0.01 0.064,-0.01551 0.004,-0.0043 0.007,-0.009 0.0103,-0.01394 -0.0101,-0.0027 -0.0185,-0.0053 -0.0289,-0.0083 -0.48567,0.02917 -0.97166,0.05816 -1.45728,0.08733 -0.0475,-0.247351 -0.0937,-0.49499 -0.14004,-0.74259 h -0.0729 c -0.0553,0.0053 -0.10882,0.0047 -0.1607,-5.29e-4 -0.11174,0.0011 -0.23964,5.29e-4 -0.39016,5.29e-4 h -0.35398 -0.11732 c -0.0148,9.8e-5 -0.0291,0 -0.0439,0 h -0.013 v -5.29e-4 c -0.84291,-0.0013 -0.71003,-0.04439 -0.44804,-0.987539 -0.34843,-0.0794 -0.3474,-0.09504 -0.72295,-0.298172 -0.13708,-0.03838 -0.25117,-0.07188 -0.10541,-0.03256 -0.3769,-0.145674 -0.26191,-0.09433 -0.48887,-0.220657 -0.33427,-0.126357 -0.82658,-0.321395 -0.44545,-0.193271 -0.027,-0.01418 -0.0836,-0.04301 -0.15449,-0.0801 -0.15947,-0.06107 -0.18709,-0.08337 -0.38709,-0.206706 0.0332,0.01183 0.0615,0.02111 0.0853,0.02894 -0.0301,-0.01521 -0.06,-0.03079 -0.0899,-0.04599 0.0482,0.02273 0.0962,0.04406 0.14417,0.06304 -0.0153,-0.0043 -0.0351,-0.01079 -0.0537,-0.01707 0.0222,0.0114 0.0447,0.02323 0.0672,0.03462 0.0934,0.02948 0.18275,0.07724 0.28009,0.08837 0.008,0.0011 0.0172,7.94e-4 0.0259,0.0016 -0.0379,-0.01662 -0.0756,-0.03378 -0.11266,-0.05219 -0.071,-0.0123 -0.13388,-0.02726 -0.18034,-0.04496 -0.008,-0.0028 -0.0143,-0.0059 -0.0217,-0.0088 0.0455,0.01214 0.0798,0.01601 0.1271,0.0155 -0.43934,-0.23433 -0.82529,-0.575201 -1.27846,-0.784965 -0.0524,-0.02426 -0.0536,-0.01098 -0.0274,0.02223 -0.21384,-0.172376 -0.27472,-0.228656 -0.0646,0.0052 0.0527,0.02853 0.10586,0.05677 0.15658,0.08837 0,2.11e-4 0,1.48e-4 0.003,5.29e-4 -0.04,-0.03712 -0.0683,-0.06612 -0.0868,-0.08837 0.18729,0.150778 0.47551,0.372797 0.79271,0.555005 -0.0103,-0.007 -0.032,-0.02085 -0.0238,-0.01601 0.0418,0.02445 0.0707,0.04216 0.10491,0.06253 0.004,0.0019 0.007,0.0033 0.0109,0.0052 0.0559,0.03345 0.10416,0.06332 0.14314,0.08733 -0.0352,-0.01249 -0.0703,-0.02511 -0.12039,-0.04289 0.17132,0.20035 -0.0659,0.04426 -0.34263,-0.16795 0.11006,0.05767 0.20751,0.103404 0.14626,0.05839 -0.0719,-0.0528 -0.15407,-0.08921 -0.23564,-0.126606 0.0308,0.02429 0.0585,0.04499 0.0889,0.06821 -0.0738,-0.03869 -0.15293,-0.08206 -0.19584,-0.109553 -0.68818,-0.440614 -0.6155,-0.445244 -0.45683,-0.335897 -0.0463,-0.03606 -0.0845,-0.06738 -0.12092,-0.09922 -0.14176,-0.08235 -0.27696,-0.163195 -0.33694,-0.202054 -0.48731,-0.03885 -0.84005,-0.09283 -0.22633,-0.127124 -0.0479,-0.01066 -0.0958,-0.02096 -0.14367,-0.03152 -0.14438,0 -0.28863,1.22e-4 -0.43304,0 -0.14446,-1.35e-4 -0.28916,7.94e-4 -0.43357,0 -0.28194,-0.0052 -0.56409,-1.06e-4 -0.84595,0.0067 -0.89178,0.01291 -1.78277,-0.03085 -2.67115,-0.108003 -0.29019,-0.03575 -0.34399,-0.04302 -0.65215,-0.07907 -0.10736,-0.01257 -0.21632,-0.0163 -0.32246,-0.03669 -0.23235,-0.04462 -0.92487,-0.199215 -0.69143,-0.160715 0.0469,0.0077 0.0934,0.01728 0.14004,0.02585 -0.10098,-0.02286 -0.20512,-0.03387 -0.30282,-0.06821 -0.47581,-0.167206 -0.75449,-0.303937 -1.08624,-0.556556 v 7.818644 h 32.66554 V 66.473462 Z m 9.15138,8.911603 c 0.0156,0.0059 0.18637,0.0057 0.29559,-0.0026 -0.0751,0.0019 -0.17603,0.0024 -0.29559,0.0026 z m 6.4213,-0.796851 c 0.0109,-0.02233 0.0193,-0.04085 0.0259,-0.05633 -0.0148,0.01394 -0.0265,0.02622 -0.0362,0.03721 -0.003,0.0099 -0.005,0.01715 -0.008,0.02739 0.006,-0.0026 0.0124,-0.0052 0.0185,-0.0083 z m 0.0259,-0.05633 c 0.005,-0.0049 0.0111,-0.01016 0.0169,-0.0155 0,-0.0016 0,-0.0031 0,-0.0047 0,5.29e-4 0,0.0016 0,0.0026 v -5.29e-4 c 0,-0.0065 -0.003,-0.01262 -0.003,-0.0181 -0.003,0.0016 -0.004,0.0037 -0.006,0.0052 -0.003,0.0084 -0.007,0.01889 -0.0124,0.03101 z m 0.28162,-0.790133 c 0,-5.29e-4 0,-0.0013 0,-0.0021 -0.003,-0.0077 -0.003,-0.01667 -0.006,-0.02585 0,5.29e-4 0,0.0016 -0.003,0.0021 0,0.0016 0,0.0031 0,0.0047 0.003,0.0013 0.003,0.0033 0.003,0.0057 0.003,0.0052 0.003,0.01035 0.004,0.01551 z m -0.73017,-1.432989 c -0.003,0.0066 -0.005,0.01585 -0.007,0.02585 0.006,-0.01045 0.0132,-0.02077 0.0201,-0.03101 1.8e-4,-0.0011 0,-0.0024 0,-0.0036 -0.003,-0.0019 -0.003,-0.0027 -0.004,-0.0026 -0.003,5.29e-4 -0.006,0.0047 -0.009,0.01138 z m -11.3094,-5.217768 c 0.10525,0.03232 0.20987,0.06734 0.31316,0.106452 0.0566,-0.0028 0.0971,-0.0057 0.13901,-0.0088 -0.0673,-0.02432 -0.13615,-0.04563 -0.20669,-0.06098 -0.0812,-0.01765 -0.16285,-0.02851 -0.24548,-0.03669 z m 0.86455,0.952397 c -0.23675,2.43e-4 -0.39939,0.02405 -0.24701,0.06098 0.11824,0.02864 0.23878,0.04192 0.3602,0.04909 0.0786,-0.01775 0.37947,-0.02294 0.5674,0.01291 0.0411,0.0013 0.0821,0.0024 0.12298,0.0052 -0.0361,-0.01691 -0.0728,-0.03285 -0.11007,-0.04754 -0.14584,-0.05752 -0.45675,-0.08086 -0.6935,-0.08062 z m 0.68059,0.122989 c -0.18907,-0.0061 -0.37954,-0.0019 -0.5674,-0.01291 -0.0293,0.0066 -0.0288,0.01461 0.0212,0.02326 0.23196,0.04017 0.46961,0.0316 0.70488,0.04496 -0.0193,-0.0091 -0.0387,-0.01884 -0.0584,-0.02739 -0.0262,-0.0114 -0.0608,-0.02037 -0.10025,-0.02791 z m 0.25993,-0.02635 c 2.6e-4,0.0013 0.006,0.0048 0.0151,0.01085 0.0706,0.04323 0.14467,0.08068 0.2186,0.118338 0.0101,0.0042 0.0193,0.0085 0.0289,0.01241 0.003,0.0011 0.006,0.0021 0.008,0.0031 -0.003,-0.0033 -0.003,-0.0046 -0.006,-0.0078 -0.0865,-0.05325 -0.26601,-0.143693 -0.26458,-0.136943 z m 0.65577,0.346234 c 0.008,0.0062 0.0153,0.01175 0.0233,0.0181 0.0857,0.03891 0.15219,0.06808 0.19844,0.08785 -0.014,-0.0088 -0.0283,-0.01823 -0.0429,-0.02635 -0.0382,-0.02135 -0.11906,-0.05579 -0.17881,-0.07958 z m 0.79322,0.386022 c 0.0335,0.01222 0.0672,0.02379 0.10078,0.03566 -0.008,-0.0033 -0.0169,-0.0063 -0.0254,-0.0098 0.13954,0.04438 -0.10028,-0.03485 -0.0755,-0.02585 z m 2.07843,0.815453 c 0.007,0.0019 0.0124,0.0043 0.018,0.0062 0.003,0.0013 0.003,0.0013 0.005,0.0026 -0.14626,-0.0993 0.22791,0.154135 0.16949,0.117824 -0.0654,-0.04059 -0.12716,-0.08571 -0.19225,-0.126609 z m -6.82646,1.825213 c -0.0236,7.93e-4 -0.046,0.0026 -0.0692,0.0026 0.0586,0.0037 0.14774,0.0064 0.15245,0.0031 0,-2.64e-4 0,-7.94e-4 -0.003,-0.0011 -0.003,-5.29e-4 -0.003,-0.0013 -0.008,-0.0021 -0.0235,-0.0033 -0.0471,-0.0034 -0.0708,-0.0026 z m 0.29406,0.162782 c 0.0185,0.0093 0.028,0.01323 0.0651,0.03307 -0.0111,-0.0088 -0.0312,-0.01228 -0.0331,-0.02635 0,-0.0028 0.003,-0.0028 0.005,-0.0016 0,-7.94e-4 -0.003,-0.0019 -0.004,-0.0026 -0.0114,-7.94e-4 -0.022,-0.0016 -0.0331,-0.0026 z m 0.49091,0.298172 c 0.007,0.0077 0.008,0.0089 0.0161,0.01707 0.1071,0.08955 0.20521,0.191349 0.32141,0.268719 0.0553,0.0368 0.11555,0.06516 0.17621,0.09302 -0.12477,-0.09833 -0.24823,-0.201104 -0.34208,-0.284736 0.0276,0.01344 0.0399,0.01767 0.0114,-0.0031 -0.0175,-0.01275 -0.0357,-0.02508 -0.0542,-0.03669 v 5.3e-4 c 0.013,0.01201 0.0262,0.02521 0.0408,0.03824 -0.0321,-0.01585 -0.097,-0.05205 -0.16952,-0.09302 z m 11.53366,0.433565 c -0.005,0.0016 -0.0111,0.01228 -0.007,0.01447 0.003,0.0016 0.006,0.003 0.009,0.0047 0.004,-0.005 0.009,-0.01027 0.0135,-0.0155 -0.004,-0.0013 -0.009,-0.0024 -0.014,-0.0036 0,-1.3e-5 0,-3e-6 -0.003,0 z m 0.78393,0.0011 c -0.003,0.01394 -0.006,0.0279 -0.009,0.04186 0.004,-0.008 0.007,-0.02535 0.009,-0.03669 0,-0.0016 6e-5,-0.0035 0,-0.0052 z m -0.74104,0.01035 c -0.0106,0.0034 -0.0209,0.0074 -0.0305,0.01241 0.13973,0.06454 0.21206,0.07014 0.24908,0.07286 0.01,-7.94e-4 0.019,-0.0011 0.0289,-0.0016 -0.0791,-0.03661 -0.16327,-0.06066 -0.24754,-0.08372 z m -8.15298,0.08578 c -0.51128,0.25442 -0.66093,0.565118 -0.014,1.012856 0.0311,-0.118276 0.0634,-0.248986 0.0956,-0.393258 -0.0595,0.06494 -0.11599,0.127934 -0.1819,0.196887 -0.19306,0.202012 -0.0315,-0.46646 0.10025,-0.816485 z m 8.41087,0.02376 c 0,5.29e-4 -0.003,0.0013 -0.003,0.0021 8e-5,7.94e-4 0,0.0019 0,0.0026 0,-0.0016 0.003,-0.003 0.003,-0.0047 z m -0.0161,0.0155 c -0.005,0.0053 -0.0106,0.01101 -0.0156,0.01707 0,0.0056 -0.003,0.01082 -0.003,0.01498 0.0103,-0.01154 0.0193,-0.02201 0.0259,-0.03152 -0.003,-1.16e-4 -0.005,-5.29e-4 -0.007,-5.29e-4 z m 0.014,5.29e-4 c -1.6e-4,0.0089 -8e-5,0.01929 -0.003,0.03307 0,-1.85e-4 0.003,-2.17e-4 0.003,-5.29e-4 0.004,-0.0098 0.006,-0.02072 0.006,-0.03204 -0.003,-1.22e-4 -0.004,-2.38e-4 -0.006,-5.29e-4 z m 0,0.03256 c 0,0.0019 -8e-5,0.0035 -0.003,0.0052 10e-5,0.0093 0,0.0186 0,0.02791 0.0159,0.0019 0.0331,0.0035 0.0543,0.0057 0.007,-0.004 0.0132,-0.008 0.0185,-0.01188 0.003,-0.0084 0.003,-0.01672 0.006,-0.02479 0,-0.0027 0.003,-0.0051 0.003,-0.0078 -0.0282,-0.0024 -0.0546,-2.54e-4 -0.0786,0.0057 z m 0.50025,0.144177 c -0.01,0.01064 -0.0185,0.0196 -0.0233,0.0279 0.006,0.0044 0.0124,0.0087 0.0164,0.01291 0.003,-0.01691 0.005,-0.03014 0.007,-0.04082 z m -11.04585,0.03152 c 0.0376,0.02066 0.0733,0.04499 0.11266,0.06201 0.006,0.0024 0.019,0.0074 0.0269,0.01035 -0.0447,-0.02328 -0.0697,-0.03664 -0.13954,-0.07235 z m 10.92234,0.0011 c -0.003,0.0094 -0.006,0.01855 -0.009,0.02791 0.0199,-0.0028 0.0396,-0.0046 0.0589,-0.0047 0.003,-0.0043 0.004,-0.0087 0.006,-0.01291 -0.0177,-0.0047 -0.0365,-0.0077 -0.0558,-0.01035 z m 0.0951,0.02635 v 0.0011 c 0.003,5.3e-4 0.005,0.0016 0.007,0.0021 -0.003,-0.0013 -0.005,-0.0019 -0.007,-0.0031 z m -10.47998,0.208775 c 0,0 0.003,0.0019 0.008,0.0041 0,-2.64e-4 -0.007,-0.0042 -0.007,-0.0041 z m 0.0196,0.01035 c 0.0135,0.009 0.0483,0.0312 0.0811,0.04806 v 5.29e-4 c 0.006,0.0029 0.0135,0.008 0.0175,0.0098 0.0109,0.0048 0.0225,0.0094 0.0336,0.01394 -0.0427,-0.02331 -0.0726,-0.0405 -0.1323,-0.07234 z m 0.0811,0.04806 c -0.0529,-0.02037 -0.0707,-0.02728 -0.10282,-0.03928 0.0185,0.0079 0.0365,0.0163 0.0553,0.02326 0.0159,0.0058 0.0528,0.01844 0.0476,0.01603 z m 11.00296,0.106452 c 0,0.0062 0,0.03506 -0.003,0.07493 0.006,-0.0028 0.0109,-0.0062 0.0161,-0.0093 -0.0111,-0.05444 -0.0138,-0.07211 -0.0145,-0.06563 z m -10.59109,0.04909 c 0.1052,0.07126 0.17524,0.104648 0.25165,0.131257 -0.0705,-0.03764 -0.15259,-0.08071 -0.25165,-0.131257 z m 10.56886,0.134874 c -0.003,0.0016 -0.004,0.0028 -0.006,0.0041 0,0.0034 -0.003,0.0068 -0.003,0.01035 0.003,-0.0026 0.004,-0.0048 0.005,-0.0067 0.003,-0.0026 0.003,-0.0053 0.004,-0.0078 z m -0.031,0.02791 c -0.003,-0.0032 -0.009,0.05173 -0.047,0.121442 1.3e-4,3.9e-5 0,-4.3e-5 0,0 0.004,-0.0035 0.009,-0.0076 0.0145,-0.01188 0,-0.0056 0.003,-0.01066 0.004,-0.01707 0.003,0.0038 0.003,0.0077 0.004,0.01138 0.006,-0.005 0.0109,-0.0098 0.0135,-0.01394 0.0138,-0.02201 0.013,-0.04115 0.0151,-0.06408 -0.003,-0.01701 -0.003,-0.02471 -0.004,-0.02585 z m -0.52761,0.05426 c -0.003,0.0031 -0.006,0.0064 -0.009,0.0098 0,0.0019 -0.003,0.0034 -0.003,0.0052 0.003,-0.0033 0.007,-0.0072 0.009,-0.0093 0,-0.0013 0.003,-0.0037 0.003,-0.0057 z m 0.41598,0.03462 -0.003,5.29e-4 c 0,5.29e-4 1.1e-4,0.0016 0.003,0.0021 v -0.0021 z m 0,0.0026 v 0 5.3e-4 z m 0,5.3e-4 c -0.003,0.0043 -0.005,0.0086 -0.007,0.01291 0.006,0.0011 0.0122,0.0021 0.018,0.0031 0,-0.0024 -1.3e-4,-0.0046 -0.003,-0.0067 -0.003,-0.0037 -0.006,-0.0062 -0.008,-0.0093 z m 0.0206,0.01188 c 0,0.0026 7e-5,0.0029 0,0.0062 0.003,5.29e-4 0.004,0.0016 0.007,0.0021 -0.003,-0.0024 -0.004,-0.0054 -0.006,-0.0083 z m -1.372,0.02687 v 5.29e-4 c -0.004,0.01037 -0.008,0.02061 -0.0119,0.031 0.005,-0.009 0.0109,-0.01878 0.0169,-0.02997 -0.003,-2.17e-4 -0.003,-0.0013 -0.005,-0.0016 z m 1.38853,0.0956 c -0.005,0.0013 -0.01,0.0028 -0.0145,0.0041 1.1e-4,0.0042 -1.3e-4,0.0087 0,0.01291 0.003,0.0011 0.003,0.004 0.003,0.0088 0.004,-0.0085 0.008,-0.01712 0.0119,-0.02585 z m -0.0151,0.01707 c -0.006,-0.0049 -0.0193,0.0173 -0.0398,0.03824 0,0.0021 0,0.0042 0.003,0.0062 0.006,-0.0013 0.0124,-0.0026 0.0185,-0.0041 0.005,-0.0036 0.009,-0.0071 0.0135,-0.01085 0,-0.0016 0,-0.0035 0.003,-0.0052 0.003,-0.0081 0.003,-0.01606 0.004,-0.02429 z m -0.006,0.02946 c 0,0.0028 -0.003,0.0055 -0.004,0.0083 -0.003,0.0011 -0.007,0.0019 -0.01,0.0026 -0.005,0.0043 -0.0109,0.0082 -0.0164,0.01241 0.003,0.0098 0.004,0.01958 0.005,0.02946 0.005,-0.0044 0.009,-0.0088 0.0135,-0.01344 0.004,-0.01161 0.009,-0.02572 0.0124,-0.04031 0,2.65e-4 0,7.94e-4 0,0.0011 z m -0.0336,0.0088 c -0.003,-0.01259 -0.007,-0.02519 -0.0114,-0.03772 -0.006,0.0013 -0.0101,0.003 -0.0156,0.0041 -0.003,0.0068 -0.005,0.01326 -0.008,0.01913 v 5.29e-4 c 0.003,0.01093 0.003,0.01556 0.003,0.02687 0.008,-0.0013 0.0151,-0.0027 0.0228,-0.0041 0,-0.0026 0.003,-0.0046 0.003,-0.0072 0,7.94e-4 0.003,0.0027 0.003,0.0041 0.003,-0.0019 0.003,-0.0039 0.005,-0.0057 z m -0.0383,-0.0078 c 0,5.29e-4 2e-5,0.0011 0,0.0016 0,-2.64e-4 0,-5.29e-4 0,-0.0011 z m 0,0.0016 c -0.006,0.0066 -0.0111,0.01283 -0.0169,0.0186 -8e-5,0.0019 0,0.0034 0,0.0052 0.005,-0.0011 0.0106,-0.0021 0.0161,-0.0031 0,-0.0016 0,-0.0031 0.003,-0.0047 0,-0.01037 -1.1e-4,-0.01053 0,-0.01601 z m -1.8619,0.509014 c 0.005,0.0053 0.0106,0.0097 0.0161,0.01394 0,-0.0045 0.003,-0.009 0.003,-0.01344 -0.007,-2.54e-4 -0.0119,-1.72e-4 -0.0185,-5.29e-4 z m -0.0966,0.03721 v 0.03462 c 0,-0.01151 0.003,-0.02313 0.003,-0.03462 0,9e-5 -0.003,-8.4e-5 -0.003,0 z m 1.86553,0.0181 c -0.023,0.03657 -0.0456,0.0733 -0.0682,0.110072 0.004,0.01315 0.007,0.029 0.009,0.04599 0.008,-0.01307 0.0161,-0.03482 0.0233,-0.05581 -0.0132,0.01122 -0.0193,0.01611 -0.0206,0.01707 0.003,-0.0021 0.0114,-0.01085 0.0217,-0.02119 0.006,-0.01699 0.0106,-0.03304 0.0135,-0.04289 -0.003,0.0065 -0.005,0.02003 -0.01,0.03979 0.007,-0.0074 0.014,-0.01513 0.0169,-0.02016 0.01,-0.01596 0.0106,-0.03513 0.0146,-0.05323 0.003,-0.0063 0.003,-0.02513 0,-0.01963 z m -1.76734,0.03152 c -0.003,7.94e-4 -0.003,0.0019 -0.006,0.0026 0.003,-2.62e-4 0.003,-1.59e-4 0.006,-5.29e-4 z m 1.21232,0.0036 v 0.0026 c 8e-5,-7.94e-4 0,-0.0019 0,-0.0026 z m -1.21182,0.05064 c -0.0156,0.0044 -0.0312,0.0087 -0.046,0.01447 0.0259,-2.65e-4 0.0359,-5.29e-4 0.046,-0.0016 -8e-5,-0.0043 8e-5,-0.0086 0,-0.01291 z m -0.56586,5.29e-4 c -0.0246,0.0019 -0.0493,0.003 -0.0739,0.0031 -0.0159,7.4e-5 -0.027,-4.2e-5 -0.0362,-5.29e-4 0.0524,0.04896 0.10287,0.09992 0.14211,0.160713 0.006,0.01013 0.0127,0.01881 0.0161,0.02997 0,0.0043 -0.008,0.0094 -0.005,0.01291 0.0145,0.01833 0.0896,0.04171 0.0661,0.04702 0.018,-5.8e-5 0.0364,5.29e-4 0.0548,0.0016 -0.0511,-0.07885 -0.10224,-0.157924 -0.15349,-0.23668 -0.004,-0.0058 -0.007,-0.01172 -0.0114,-0.01757 z m 0.4713,0.02222 c -0.004,0.01506 -0.007,0.02987 -0.0103,0.04392 0,0.01707 -0.003,0.03411 -0.003,0.05116 0.006,-0.0019 0.0124,-0.0039 0.0185,-0.0057 -0.003,-0.02979 -0.004,-0.05953 -0.005,-0.0894 z m 0.97721,0.01035 c -0.008,0.02164 -0.0164,0.04356 -0.0243,0.06511 0.003,-1.9e-5 0.005,2.4e-5 0.007,0 0.006,-0.03224 0.0111,-0.04887 0.0175,-0.06356 -6e-5,-5.29e-4 -3e-5,-0.0011 0,-0.0016 z m -0.87902,0.05581 c -0.0167,0.0094 -0.0322,0.0177 -0.0615,0.03617 -0.003,0.0019 -0.006,0.0011 -0.009,0.0011 -0.007,-2.9e-5 -0.019,0.0059 -0.0196,-0.0011 -1.4e-4,-0.0016 0,-0.0034 0,-0.0052 0,2.65e-4 -0.003,0.0019 -0.003,0.0021 -0.006,0.0011 -0.0116,0.0016 -0.0161,0.0026 0,2.64e-4 8e-5,0.0013 0,0.0016 -8e-5,0.0037 -0.008,0.0029 -0.014,0.0016 -0.0613,0.0094 -0.0911,7.93e-4 -0.14211,-0.02479 -0.005,-2.64e-4 -0.009,-0.0011 -0.014,-0.0021 -0.0376,0.05077 -0.0801,0.108841 -0.11525,0.156061 0.0399,0.0024 0.0795,0.0081 0.11628,0.01963 0.0397,-0.01643 0.10173,-0.05024 0.14004,-0.05994 0.0335,-0.0085 0.0684,-0.01119 0.10282,-0.0155 -0.004,0.0027 -0.0326,0.01553 -0.0119,0.01291 0.007,-0.0029 0.0127,-0.01 0.019,-0.0088 0.007,0.0021 -0.005,0.01257 -0.005,0.01757 0.006,0.0578 0.003,0.228925 0.0196,0.173117 0.0627,-0.215035 -0.006,-0.189368 -0.014,-0.190688 -0.003,-0.0011 0.007,-0.0082 0.0331,-0.03204 0,0.0016 -0.003,0.0029 -0.004,0.0047 -0.004,0.0056 -0.005,0.02748 -0.003,0.02119 0.005,-0.01019 0.009,-0.0208 0.0119,-0.03152 -0.003,0.0016 -0.003,0.0028 -0.005,0.0041 0.003,-0.0019 0.003,-0.0039 0.005,-0.0057 -1.3e-4,5.29e-4 0,0.0011 0,0.0016 0,-7.94e-4 0.003,-0.0019 0.003,-0.0026 v -5.29e-4 -5.29e-4 c -0.0257,-0.02103 -0.0254,-0.01725 -0.0124,-0.0739 z m 1.07746,0.189134 c -0.0204,0.02888 -0.0364,0.05792 -0.0305,0.0646 0.0119,-0.02702 0.0201,-0.04365 0.0109,-0.0186 8e-5,0.0061 0,0.01159 0,0.01757 0.006,-0.0024 0.014,-0.0069 0.0249,-0.01447 0.003,0.0072 0.009,0.02914 0.007,0.0217 -0.006,-0.02429 -0.0106,-0.04762 -0.0119,-0.0708 z m -5.30148,0.04031 c -0.0222,0.0027 -0.0445,0.0052 -0.0672,0.0078 0.0347,0.0472 0.0902,0.112533 0.15914,0.186552 0.0114,-0.03172 0.0246,-0.06497 0.0398,-0.100253 -0.0407,-0.02974 -0.0863,-0.06179 -0.13176,-0.09405 z m 5.62496,0.04547 c 0,0.0019 -0.003,0.0043 -0.003,0.0062 0.005,0.0013 0.0101,0.0029 0.0151,0.0041 -0.004,-0.004 -0.009,-0.0074 -0.0124,-0.01035 z m 0.13591,0.01601 c -0.003,0.0083 -0.004,0.0164 -0.008,0.02479 0.003,5.3e-4 0.003,0.0013 0.005,0.0021 0.003,-0.0024 0.003,-0.0048 0.004,-0.0072 v -0.01963 z m -0.76636,0.0072 c -0.0111,0.0021 -0.023,0.0051 -0.0351,0.0088 -0.006,0.0052 -0.0116,0.01058 -0.0175,0.01601 0.0236,-0.0029 0.0421,-0.01006 0.0527,-0.02479 z m 0.29972,0.02739 c -0.003,0.0016 -0.006,0.0049 -0.0103,0.0093 3e-5,7.93e-4 -5e-5,0.0024 0,0.0031 0.003,-0.0038 0.007,-0.0079 0.0103,-0.01188 z m -2.72645,0.03566 c -3e-5,0.003 0,0.0062 -0.003,0.0093 -0.003,0.01516 -0.003,0.03032 -0.004,0.04547 0.003,0.06331 0.004,0.126654 0.006,0.19172 0.0212,0.02059 0.0425,0.04073 0.0641,0.06149 0.003,-0.0715 0.004,-0.142954 0.007,-0.214455 -0.0236,-0.03107 -0.0466,-0.06233 -0.0698,-0.09354 z m 1.01494,0.0739 c 0.004,0.01651 0.007,0.03311 0.0103,0.04961 0.007,-0.0089 0.0145,-0.01947 0.0212,-0.02842 -0.0101,-0.006 -0.0177,-0.01275 -0.0274,-0.0186 -0.003,-7.94e-4 -0.003,-0.0019 -0.004,-0.0026 z m 1.61332,0.01601 c -0.005,0.0027 -0.008,0.0068 -0.0103,0.01188 0.004,-0.0042 0.007,-0.0084 0.0103,-0.01188 z m 0.0259,0.193271 c 0.0196,0.01209 0.0392,0.02434 0.0558,0.03979 0.0145,0.01357 -0.0351,-0.01897 -0.0527,-0.02842 0,-0.0037 -0.003,-0.0077 -0.003,-0.01138 z m -0.5452,0.03824 v 0.0217 z m -5.00795,0.08217 c -0.0127,0.008 0.22288,0.114628 0.31625,0.151929 0.007,-0.01767 0.0109,-0.03908 0.0146,-0.0646 -0.0907,-0.0258 -0.18989,-0.05328 -0.3085,-0.08423 -0.0135,-0.0035 -0.0204,-0.0043 -0.0222,-0.0031 z m 0.99737,0.0031 c -0.0402,0.02127 -0.0807,0.04187 -0.12144,0.06201 0.0106,0.0067 0.0217,0.01384 0.0315,0.01913 0.0789,0.04267 0.15063,0.08033 0.2186,0.115239 -0.006,-0.0355 -0.0316,-0.09396 -0.12867,-0.196371 z m 3.98373,0.03514 c -0.0329,0.02302 -0.0631,0.03261 -0.0367,0.02429 0.0114,0.01146 0.0249,-0.0013 0.0367,-0.02429 z m -4.97491,0.05478 v 5.29e-4 c -0.003,0.0021 0.0944,0.03588 0.13179,0.04186 0.0306,0.0049 0.0498,0.0074 0.078,0.01188 -0.056,-0.01487 -0.11975,-0.03163 -0.20256,-0.05219 -0.005,-0.0011 -0.006,-0.0019 -0.007,-0.0021 z m 0.35192,0.06563 c -0.007,5.29e-4 -0.014,0.0011 -0.0212,0.0016 0.004,0.0016 0.007,0.0021 0.0109,0.0036 0.003,-0.0019 0.007,-0.0033 0.0103,-0.0052 z m -0.0455,0.0026 c -0.003,8.2e-5 -0.003,5.29e-4 -0.004,5.29e-4 0,1.8e-4 0.003,1.61e-4 0.004,5.29e-4 1.8e-4,-2.64e-4 0,-7.94e-4 0,-0.0011 z m 0.19484,0.04754 c -0.0156,0.0011 -0.0225,0.0016 -0.0201,0.0016 0,5.3e-4 -0.003,0.0016 -0.004,0.0021 0.004,0.0011 0.008,0.0021 0.0114,0.0031 0.004,-0.0021 0.009,-0.0046 0.0124,-0.0062 z m -0.0424,0.0088 c -0.12144,0.04143 -0.23905,0.09859 -0.35811,0.148312 0.0699,-0.02828 0.1429,-0.04774 0.21447,-0.07183 0.0364,-0.01751 0.11168,-0.05013 0.16018,-0.07235 -0.005,-0.0013 -0.0103,-0.0027 -0.0161,-0.0041 z m 0.39378,0.04289 c 0.003,0.0011 0.006,0.0021 0.008,0.0031 0.0345,0.0016 0.0645,0.0026 0.10748,0.0052 -0.0585,-0.0046 -0.0724,-0.0052 -0.11523,-0.0083 z m 2.57246,0.08682 c 0.0364,0.03373 0.0739,0.06818 0.1111,0.102319 -0.14494,0.06779 -0.26569,0.124513 -0.37052,0.166399 0.0727,-0.06172 0.15827,-0.150722 0.25942,-0.268718 z m -2.19159,0.03256 c 0,5.29e-4 0.0528,0.01228 0.12038,0.02739 v -5.29e-4 c -0.0327,-0.0079 -0.0653,-0.01574 -0.0982,-0.02273 -0.0151,-0.0032 -0.0222,-0.0043 -0.0222,-0.0041 z m 0.49506,0.02585 c 0,0.01066 0.003,0.02138 0.003,0.03204 0,0.0047 0.003,0.009 0.008,0.01344 0.0456,-5.29e-4 0.0986,-0.0011 0.16639,-0.0016 -0.0669,-0.01704 -0.12062,-0.03004 -0.17674,-0.04392 z m 0.26456,0.04341 c -0.0424,1.43e-4 -0.0512,1.14e-4 -0.0863,5.29e-4 0.0494,0.01267 0.11147,0.02986 0.16742,0.04444 -0.11432,-5.29e-4 -0.21992,-0.01193 -0.33125,-0.03876 0.0185,0.01392 0.0566,0.02627 0.10697,0.03669 -0.068,-0.0042 -0.13584,-0.01095 -0.2041,-0.0217 0.32139,0.0663 0.68913,0.132641 0.5462,0.05839 0.007,2.61e-4 0.0122,0.0013 0.018,0.0016 -0.0135,-0.0035 -0.0243,-0.0065 -0.0372,-0.0098 0.007,0.003 0.0122,0.0061 0.0169,0.0088 -0.12707,-0.0066 -0.25299,-0.01863 -0.34107,-0.03669 0.077,0.0048 0.15409,0.0061 0.23101,0.0041 -0.003,-5.29e-4 -0.003,-0.0019 -0.005,-0.0026 0.0124,4.5e-5 0.0249,-1.64e-4 0.0377,-5.29e-4 -0.0324,-0.01294 -0.0704,-0.02702 -0.11938,-0.04444 z m 0.17986,0.07131 v -5.29e-4 c -0.0151,-0.0071 -0.0354,-0.01569 -0.0584,-0.02479 -0.0109,5.29e-4 -0.0222,0.0013 -0.0331,0.0016 0.0298,0.0079 0.0586,0.01542 0.0904,0.02376 v 0 z m -0.44754,-0.06925 c 0.005,0.0013 0.0111,0.0029 0.0161,0.0041 -0.003,-0.0013 -0.003,-0.0028 -0.005,-0.0041 -0.003,3.7e-5 -0.007,-1.3e-5 -0.0109,0 z m 1.91307,0.09664 c 0.0405,0.04103 0.004,0.06677 -0.0646,0.08475 0.035,-0.02111 0.0561,-0.04826 0.0646,-0.08475 z m -1.05111,0.163811 c 0,5.29e-4 0.003,0.0011 0.003,0.0016 0.003,0.0079 0.007,0.01508 0.0109,0.0217 -0.007,-0.0036 -0.0122,-0.0096 -0.0124,-0.02016 0,-0.0013 0,-0.0021 0,-0.0031 z m 0.34573,0.0036 c 1.6e-4,0.0024 0,0.0044 0,0.0067 0.0122,-7.93e-4 0.0198,-0.0019 0.0315,-0.0026 -0.0103,5.3e-5 -0.0206,-0.0013 -0.0299,-0.0041 0,-6.6e-5 0,1.01e-4 -0.003,0 z" />
    </clipPath>
    <marker
       style="overflow:visible"
       id="ConcaveTriangle-3-8"
       refX="0"
       refY="0"
       orient="auto-start-reverse"
       inkscape:stockid="Concave triangle arrow"
       markerWidth="7.6999998"
       markerHeight="5.5999999"
       viewBox="0 0 7.7 5.6"
       inkscape:isstock="true"
       inkscape:collect="always"
       preserveAspectRatio="xMidYMid">
      <path
         d="M -2,-4 9,0 -2,4 c 2,-2.33 2,-5.66 0,-8 z"
         style="fill:context-stroke;fill-rule:evenodd;stroke:none"
         id="path7-6-7"
         transform="scale(0.7)" />
    </marker>
    <clipPath
       clipPathUnits="userSpaceOnUse"
       id="clipPath64-9">
      <path
         id="path65-5"
         style="fill:#ff0000;fill-opacity:1;fill-rule:nonzero;stroke:none;stroke-width:0.264583"
         d="m 266.32845,66.472427 c 0.0324,0.12346 0.0521,0.248605 0.0579,0.374139 0.1361,-2.51e-4 0.2735,-0.0027 0.40722,-0.0052 0.33565,-0.0086 0.67146,-0.0123 1.00719,-0.0062 0.11716,-0.0013 0.23418,-0.0011 0.35139,-0.0011 0.36002,-0.0052 0.71644,-0.0024 1.07487,0.04186 0.0985,0.01214 0.19487,0.03549 0.2925,0.05323 0.17465,0.03365 0.34766,0.07408 0.51829,0.121955 -0.32274,-0.0213 -0.5956,-0.03065 -0.48059,-0.01344 0.2018,0.03035 0.4078,0.03221 0.61082,0.05219 -0.0427,-0.0131 -0.0852,-0.02668 -0.12814,-0.03876 0.50573,0.03348 1.12366,0.09703 0.58341,0.136427 0.31999,0.115779 0.60409,0.323151 0.86299,0.535884 -0.0109,-0.01008 -0.0212,-0.0204 -0.032,-0.03049 0,-7.93e-4 -0.003,-0.0037 -0.003,-0.0031 0.11131,0.06058 0.21326,0.137525 0.3142,0.214974 -0.0101,-0.0071 -0.0196,-0.01434 -0.0294,-0.02119 -0.0201,-0.01373 -0.0777,-0.04727 -0.0765,-0.04496 1.9e-4,2.62e-4 0,0.0016 0.004,0.0036 0.0439,0.02987 0.089,0.05822 0.13382,0.08682 0.003,0.0019 0.005,0.0034 0.007,0.0052 0.003,0.0016 0.005,0.0029 0.007,0.0047 0.12147,0.07746 0.24326,0.154217 0.35965,0.238744 0.003,-0.01019 0.0328,0.0029 0.077,0.02945 -0.24273,-0.192789 0.31732,0.171926 0.66974,0.411345 0.0156,0.0063 0.0282,0.01159 0.0382,0.01551 0.0834,0.02815 0.1651,0.06394 0.24548,0.102835 -0.0497,-0.02003 -0.0964,-0.03817 -0.14833,-0.05788 0.0329,0.019 0.0859,0.05148 0.20153,0.119888 0.0429,0.0091 0.0677,0.01296 0.0822,0.01344 -0.0259,-0.01281 -0.0516,-0.02596 -0.0775,-0.03876 -0.031,-0.01378 -0.0622,-0.0271 -0.093,-0.04134 -0.0135,-0.0063 0.0277,0.01066 0.0419,0.01601 0.0169,0.0084 0.0342,0.01688 0.0511,0.02532 0.029,0.01288 0.0578,0.02603 0.0868,0.03876 0,-1.11e-4 0.003,-1.58e-4 0.003,-5.29e-4 -0.0464,-0.02484 -0.0935,-0.04866 -0.14107,-0.07183 0.0883,0.03566 0.158,0.06648 0.14107,0.07183 0.006,0.0033 0.0124,0.007 0.0185,0.01034 0.0935,0.04092 0.18651,0.08314 0.27803,0.128157 0.10557,0.03704 0.21145,0.0745 0.31522,0.116271 0.0828,0.03331 0.16219,0.07411 0.23977,0.118856 0.27252,0.07878 0.353,0.09903 0.4718,0.158647 0.337,0.09146 0.35087,0.08799 0.54158,0.189134 -0.16778,-0.05667 -0.32959,-0.108275 -0.44752,-0.141075 0.008,0.0043 0.0212,0.01135 0.03,0.01603 -0.0109,-0.0056 -0.0217,-0.01114 -0.0325,-0.01654 -0.1819,-0.05047 -0.25742,-0.05742 -0.0661,0.03049 0.076,0.03494 0.15333,0.06524 0.23204,0.09302 -0.0586,-7.93e-4 -0.11737,0.0033 -0.17624,0.01138 0.35568,0.110733 0.70506,0.275359 1.07281,0.320907 0.0206,0.0026 0.0381,0.0037 0.0532,0.0047 -0.0579,-0.03457 -0.11581,-0.0693 -0.17362,-0.10387 -0.061,-0.01974 -0.12276,-0.03742 -0.18449,-0.05529 -0.0394,-0.02011 -0.0499,-0.02611 -0.0822,-0.04289 0.0169,0.0094 0.0342,0.01897 0.0511,0.02946 0.004,0.0024 0.007,0.005 0.0103,0.0072 -0.19074,-0.05481 -0.38399,-0.105831 -0.57052,-0.171564 0.15219,0.0019 0.30324,0.03376 0.45167,0.105418 -0.0564,-0.0296 -0.1284,-0.06668 -0.16539,-0.0863 0.44233,0.149542 0.91202,0.33464 0.66355,0.318328 0.0307,0.01831 0.0574,0.03627 0.0863,0.05426 0.28784,-0.184846 0.57015,-0.320244 0.84336,-0.414962 0.37367,-0.36581 0.84042,-0.560231 1.32138,-0.567407 1.02338,-0.01527 2.11079,0.817372 2.50423,2.647384 0.01,-0.0024 0.0201,-0.0036 0.03,-0.0036 0.0823,0 0.16434,0.08145 0.16434,0.24443 V 72.224 72.402801 c 0.004,0.0024 0.007,0.0088 0.0185,0.01913 0.0241,-0.01008 0.048,-0.0098 0.0713,-0.0031 0.0371,-0.01603 0.0807,-0.03122 0.12197,-0.04237 0.11772,-0.117491 0.29295,-0.240035 0.11936,-0.04031 0.0768,0.05898 0.13798,0.06805 0.13851,0.164849 0.0183,6.6e-5 0.0361,0.0021 0.0517,0.0078 -0.003,-3.2e-5 -0.0124,-0.0013 -0.0161,-0.0016 -0.0122,0.0021 -0.0241,0.0076 -0.0356,0.01601 3e-5,0.0068 -1.3e-4,0.01386 0,0.02066 0.0391,0.0028 0.0634,0.008 0.0765,0.01498 0,0.0038 -0.003,0.0075 -0.004,0.01138 0.003,1.67e-4 0.004,2.14e-4 0.006,5.29e-4 0,-0.003 0.003,-0.0058 0.003,-0.0088 0,-0.0011 -0.003,-0.0021 -0.004,-0.0031 0.007,-0.02368 0.0151,-0.04625 0.0238,-0.0677 0.0132,-0.04151 0.03,-0.08138 0.0506,-0.119888 0,-0.0089 0.003,-0.01818 0.006,-0.02635 0.003,-0.0079 0.0135,-0.02365 0.0212,-0.03721 0.008,-0.01384 0.0127,-0.02553 0.0212,-0.03824 0.003,-0.0052 0.003,-0.01042 0.005,-0.0155 0.007,-0.01847 0.0251,-0.03059 0.0403,-0.04289 0.0306,-0.02461 0.0533,-0.03534 0.0724,-0.03514 0.05,5.29e-4 0.0759,0.07558 0.1607,0.16795 0,-0.0099 0.004,-0.01934 0.008,-0.02842 0.009,-0.01945 0.0119,0.0085 0.0103,0.04806 0.007,0.0068 0.0138,0.01378 0.0212,0.02066 -0.0169,0.0348 -0.0201,0.04395 -0.0279,0.05426 -0.006,0.04497 -0.0159,0.0779 -0.0265,0.04961 0,0.0011 -0.003,0.0021 -0.003,0.0031 0,0.0029 -0.003,0.0058 -0.003,0.0088 -0.007,0.03451 -0.0288,0.06425 -0.0465,0.09457 -0.007,0.03466 -0.0135,0.07048 -0.0274,0.103351 -1.3e-4,2.65e-4 0,7.94e-4 0,0.0011 0.022,0.01154 0.0421,0.02209 0.0584,0.03204 0.0668,-0.06019 0.0404,-0.04723 0.093,-0.0739 0.006,-0.003 0.0222,-0.014 0.018,-0.0088 -0.0151,0.0191 -0.0278,0.03349 -0.0393,0.04599 0.013,0.0061 0.0316,0.03538 0.0563,0.09043 0.0416,-0.04763 0.0829,-0.09555 0.12198,-0.145212 -0.004,-0.01053 -0.007,-0.02106 -0.0109,-0.03152 -0.003,-0.0051 0.0274,0.0108 0.0274,0.01085 -0.005,0.007 -0.0116,0.01373 -0.0164,0.02066 0.006,0.01659 0.0116,0.03299 0.0175,0.04961 0.0101,-0.01265 0.0204,-0.02598 0.0305,-0.04031 0.0246,0.04659 0.0717,0.105806 0.046,0.166396 -0.004,0.0096 -0.009,0.01847 -0.0146,0.02739 0.003,0.0035 0.004,0.0069 0.006,0.01035 0.0473,-0.09389 0.11398,-0.13725 0.17415,-0.140044 0.0484,-0.0024 0.0911,0.02273 0.11731,0.06718 0.007,-0.0011 0.0138,-0.0016 0.0206,-0.0016 0.10105,0.0013 0.17936,0.117446 0.10748,0.29714 -0.0109,0.02744 -0.0212,0.05544 -0.0325,0.08268 -0.0164,0.03907 -0.0492,0.130572 -0.0925,0.171564 v 5.29e-4 c -0.003,0.0094 -0.008,0.01704 -0.0156,0.02429 -0.008,0.0434 -0.022,0.09644 -0.045,0.123505 0,0.0048 0.003,0.0098 0.003,0.01447 0.0904,0.03002 0.0525,0.0629 -0.0254,0.08992 -0.0109,0.01595 -0.0246,0.03121 -0.0403,0.04548 0,0.01196 0,0.02935 -0.003,0.05478 -0.0119,0.01757 -0.0243,0.03681 -0.0367,0.05581 0,0.0026 0,0.0059 0.003,0.0078 2.7e-4,0.0016 2.1e-4,0.0036 0,0.0062 0,-0.0039 -0.003,-0.008 -0.003,-0.01188 -0.006,0.0096 -0.0132,0.01897 -0.0191,0.02791 -0.007,0.03623 -0.0106,0.05807 -0.0114,0.06976 0,0.0035 0.003,0.0071 0.003,0.01085 0.007,-0.0053 0.0285,-0.07017 0.031,-0.0956 0,0.004 0.003,0.0079 0.003,0.01188 0,0.0067 0,0.01386 0,0.02066 0,0.04987 0,0.03907 -0.0315,0.07906 0.004,0.02736 0.006,0.05573 -0.006,0.0708 -0.0336,0.0452 -0.0787,0.08052 -0.11628,0.122473 -0.003,0.0024 0.007,-5.29e-4 0.009,-0.0026 0.0228,-0.02138 0.0437,-0.04481 0.0656,-0.06718 0.0183,-0.0024 0,0.06134 -0.0217,0.114205 0.005,0.01751 0.009,0.03534 0.003,0.05167 -0.0164,0.0455 -0.0392,0.08815 -0.0589,0.132292 -0.0101,0.0083 -0.0111,0.0091 -0.0175,0.01447 -0.006,0.02225 -0.013,0.05425 -0.0233,0.09612 0,0.0058 0,0.01185 0,0.01757 -0.0198,0.05017 -0.0352,0.141131 -0.0971,0.170532 -0.0167,0.0079 0.0292,-0.02416 0.0382,-0.04031 0.01,-0.01715 0.0306,-0.06927 0.0156,-0.05685 -0.0103,0.0085 -0.0196,0.01659 -0.0284,0.02429 1.9e-4,0.0013 0,0.0024 0,0.0036 0,-0.0011 0,-0.0021 0,-0.0031 0,5.3e-4 -0.003,0.0013 -0.003,0.0021 -0.005,0.01998 0,0.04646 -0.0169,0.05736 -0.008,0.0054 -0.0172,0.01005 -0.0259,0.01447 -0.005,0.0109 -0.0116,0.02296 -0.018,0.03566 0,0.0061 0.003,0.01328 0.003,0.0186 0.008,-0.0123 0.0175,-0.02442 0.0259,-0.03669 v 0 c 1.8e-4,0.0021 0,0.0089 -0.003,0.01188 -0.003,0.01296 -0.003,0.02787 -0.0103,0.03876 -0.008,0.01087 -0.0127,0.01775 -0.0175,0.02479 -0.003,0.0064 -0.005,0.01265 -0.008,0.0186 -5e-5,1.72e-4 2e-5,2.64e-4 0,5.29e-4 -0.004,0.02178 -0.0109,0.04537 -0.0249,0.06098 -0.004,0.0258 -0.0153,0.0504 -0.0289,0.07338 1.6e-4,0.0019 0,0.0038 0,0.0057 0.005,0.08024 -0.0153,0.101378 -0.0491,0.09302 -0.0153,0.01794 -0.0332,0.03595 -0.0553,0.05685 -0.0185,0.01757 -0.0489,0.01524 -0.0734,0.02273 -0.029,0.0089 -0.0503,0.01257 -0.0656,0.01138 -0.003,7.93e-4 -0.003,0.0013 -0.004,0.0021 0.01,0.009 10e-5,0.0094 -0.0346,0.01291 0,1.27e-4 -1e-4,-1.27e-4 -0.003,0 -0.005,0.0013 -0.0103,0.0021 -0.0151,0.0031 -0.005,0.0013 -0.0103,0.003 -0.0156,0.0041 -0.007,0.0108 -0.0135,0.02178 -0.0201,0.03256 -0.0306,-5.29e-4 -0.11592,0.01757 -0.092,-0.0016 0.0303,-0.02384 0.0737,-0.02254 0.11213,-0.031 0,-7.94e-4 2.1e-4,-0.0019 0.003,-0.0026 -0.006,2.22e-4 -0.0124,-1.96e-4 -0.0185,-0.0021 -0.0954,-0.0011 -0.15986,-0.03662 -0.19068,-0.08423 0,0.0011 -0.003,0.0024 -0.003,0.0036 -0.004,0.0063 -0.006,-0.0062 -0.007,-0.0181 -0.003,-7.94e-4 -0.005,-0.0019 -0.007,-0.0026 0.007,0.02463 0.0164,0.0525 0.0249,0.08216 -0.022,-0.01355 -0.0434,-0.02678 -0.0594,-0.04651 -0.0196,-0.02389 -0.0164,-0.05994 -0.0269,-0.08888 0,-0.0016 -0.004,0.0029 -0.005,0.0016 -0.0106,-0.0177 -0.0209,-0.0709 -0.0238,-0.08165 0,-0.01638 -10e-5,-0.03316 -0.003,-0.04909 -0.003,-0.0114 0.003,0.02384 0,0.03514 -0.003,0.004 -0.006,-0.0063 -0.007,-0.01035 -0.007,-0.02495 -0.0127,-0.04656 -0.0164,-0.0677 -0.003,0.0024 -0.004,0.0045 -0.006,0.0067 -0.005,0.02662 -0.0169,0.05097 -0.0434,0.07338 -0.0119,0.01011 0.0209,-0.02447 0.0279,-0.03824 0.003,-0.0053 0.005,-0.01439 0.007,-0.02532 -0.0143,0.01529 -0.0383,0.04078 -0.0331,0.02687 0.0156,-0.0396 0.0272,-0.05895 0.0356,-0.06718 -8e-5,-0.0348 -0.008,-0.06779 -0.0262,-0.05943 -0.0116,0.005 -0.023,0.01058 -0.0336,0.01707 v 0.02532 c -0.003,2.15e-4 -0.004,7.94e-4 -0.006,0.0011 -0.0465,0.08251 -0.0865,0.132725 -0.11213,0.162779 -0.003,-0.01397 -0.006,-0.02789 -0.009,-0.04186 -0.0116,0.0236 -0.0235,0.0472 -0.0341,0.07131 0.005,-4.4e-5 0.0106,-2.54e-4 0.0161,-5.29e-4 -0.004,0.0054 -0.004,0.0075 0,0.0078 0.004,1.21e-4 0.0119,-0.0019 0.0238,-0.0057 -0.007,-0.0019 -0.0145,-0.0021 -0.0217,-0.0021 0.004,-0.0054 0.0127,-0.01529 0.0233,-0.02739 0.003,0.0093 0.004,0.0186 0.006,0.02791 -0.003,7.94e-4 -0.003,7.94e-4 -0.005,0.0016 v 5.3e-4 c 0.003,5.29e-4 0.003,0.0011 0.005,0.0016 0.003,5.29e-4 -0.014,0.0016 -0.0279,0.0036 -0.0119,0.0016 -0.022,0.0042 -0.0243,0.0036 -0.0116,0.02671 -0.023,0.05341 -0.0346,0.0801 -0.0339,0.07351 -0.0747,0.152947 -0.13745,0.207221 -0.0228,0.08706 -0.0374,0.07114 -0.292,0.04341 -0.0249,-0.0027 -0.0241,-0.04379 -0.03,-0.0677 -0.0103,-0.03931 -0.007,-0.06868 0.005,-0.09715 2.3e-4,-0.01879 0,-0.04345 0,-0.04857 v -0.167947 -0.04703 c -0.0151,0.0081 -0.0324,0.01802 -0.0414,0.02222 -0.064,0.01159 -0.0948,0.01736 -0.108,0.02016 0.0135,-0.0036 0.0298,-0.01032 -0.0568,-0.0062 0.004,0.0013 0.0183,0.005 0.0243,0.0062 0.003,5.29e-4 0.009,-0.0011 0.007,0 -0.0243,0.01228 -0.08,0.03518 -0.10853,0.04702 -0.0116,0.0047 -0.0236,0.0081 -0.0351,0.01085 0.0462,0.07126 0.0923,0.142685 0.13851,0.213939 0.0358,0.05525 -0.0773,0.116436 -0.13851,0.14056 -0.11819,0.04653 -0.22201,0.08967 -0.31988,0.131257 -0.042,-0.16706 -0.0814,-0.335094 -0.11988,-0.503327 -0.13462,0.178353 -0.25294,0.331346 -0.35811,0.46147 0.0323,0.09034 0.0563,0.164151 0.0703,0.224793 0.11541,-0.05346 0.24918,-0.114292 0.40566,-0.180866 0.009,0.0353 0.018,0.0707 0.0274,0.105936 -0.13663,0.07312 -0.30861,0.336479 -0.40978,0.219107 -0.005,-0.0053 -0.0106,-0.01074 -0.0146,-0.01601 0,0.003 -0.003,0.0058 -0.003,0.0088 -0.0346,-0.03149 -0.0674,-0.06238 -0.10128,-0.09354 0.009,-0.004 0.0153,-0.0072 0.0243,-0.01138 -0.0357,-0.04229 -0.0717,-0.08446 -0.10695,-0.127122 -0.01,0.01162 -0.0198,0.02299 -0.0295,0.0341 -0.16325,-0.151484 -0.31808,-0.298426 -0.46562,-0.440798 -0.006,0.182618 -0.0111,0.365186 -0.0159,0.547769 0.0353,-0.0077 0.0703,-0.01492 0.10594,-0.02066 0.0461,-0.0075 -0.0306,0.01392 -0.10594,0.03256 -0.003,0.07131 -0.005,0.142629 -0.007,0.213942 0,0.004 0,0.0078 0,0.01188 0.0731,-0.01569 0.14626,-0.03971 0.22479,-0.0708 -0.0779,0.06562 -0.14116,0.09918 -0.19172,0.100253 0.0227,-0.0013 0.0416,-0.0029 0.063,-0.0041 0.039,-0.01156 0.0769,-0.02151 0.11007,-0.02687 0.10144,-0.01635 0.30321,-0.02405 0.42169,-0.05219 -0.0848,0.04792 -0.25699,0.06236 -0.53176,0.07907 -0.16526,0.0492 -0.36253,0.12768 -0.43357,0.02222 0.0299,0.01029 0.0967,-0.01434 0.13488,-0.01188 0,-0.0038 1.1e-4,-0.0076 0.003,-0.01138 -0.0476,0.0011 -0.0976,-0.0011 -0.15193,-0.0057 h -0.003 c -0.0928,-0.0079 -0.19717,-0.0245 -0.32142,-0.04961 0.004,-0.031 0.008,-0.062 0.0124,-0.09302 -0.469,0.03583 -0.75682,-0.01934 -0.90435,-0.144177 -0.0544,-0.01421 -0.13658,-0.03651 -0.24961,-0.06563 -0.0598,-0.0013 -0.0834,-0.0072 -0.11059,-0.02016 0.014,0.0026 0.0281,0.0052 0.0424,0.0062 0.005,2.62e-4 0.0106,0.0013 0.0161,0.0016 -0.0262,-0.0066 -0.06,-0.01487 -0.0899,-0.02222 0.0111,0.0061 0.0212,0.01127 0.03,0.0155 -0.0447,-0.0079 -0.0882,-0.02148 -0.13229,-0.03204 -0.0308,-0.0074 -0.0612,-0.01709 -0.0915,-0.02635 -0.0106,-0.0032 -0.0417,-0.01333 -0.031,-0.01085 0.09,0.0208 0.15724,0.03727 0.22426,0.05375 -0.0251,-0.01347 -0.0586,-0.03126 -0.11832,-0.05633 -0.0983,-0.0046 -0.17661,-0.0088 -0.24908,-0.02066 0.0445,0.0034 0.13864,0.01024 0.2408,0.01757 -0.0262,-0.01082 -0.0566,-0.02334 -0.093,-0.03669 0.047,0.0045 0.0684,0.005 0.0718,0.0036 -0.004,-0.003 -0.0466,-0.01042 -0.1044,-0.01447 0.0101,0.0035 0.022,0.0075 0.031,0.01085 -0.0293,-0.0029 -0.0665,-0.0076 -0.11732,-0.01394 0.0305,-2.17e-4 0.0588,0.0013 0.0858,0.0031 -0.0302,-0.01077 -0.0625,-0.0222 -0.10028,-0.03462 -0.018,0.0077 -0.0351,0.01527 -0.0532,0.02273 0.004,7.93e-4 0.009,7.93e-4 0.014,0.0016 -0.009,5.29e-4 -0.0169,0.0011 -0.0254,0.0016 0,2.32e-4 -1.8e-4,7.93e-4 -0.003,0.0011 0.0156,-0.0011 0.0238,-0.0019 0.0289,-0.0021 0,7.2e-5 0,-7.4e-5 0.003,0 0,1.41e-4 0.003,2.54e-4 0.003,5.29e-4 0,1.2e-4 0.003,5.3e-4 0.003,5.3e-4 0,1.16e-4 0.003,5.29e-4 0.003,5.29e-4 h 0.003 c 0.0114,0.0016 0.0269,0.0038 0.0377,0.0052 -0.008,7.7e-5 -0.0148,1.56e-4 -0.0228,5.29e-4 -0.11714,-7.93e-4 -0.0481,-5.29e-4 -0.0646,-5.29e-4 -0.0106,0.0044 -0.0214,0.0086 -0.032,0.01291 0.032,0.0085 0.0629,0.01532 0.092,0.02016 -0.046,-0.0036 -0.0766,-0.0075 -0.10491,-0.01394 -0.0827,0.03291 -0.16671,0.06346 -0.25114,0.09198 -0.0521,0.01759 -0.20188,0.06727 -0.1664,0.05116 -0.11332,0.04659 -0.22823,0.086 -0.34933,0.09715 -0.29898,0.02753 -0.59806,-0.03141 -0.89762,-0.0677 0.003,0.01479 0.005,0.02965 0.008,0.04444 -0.0172,-0.0037 -0.0962,-0.01963 -0.1297,-0.02945 -0.0419,-0.01228 -0.16912,-0.03996 -0.12557,-0.03772 0.0822,0.0042 0.16484,0.01278 0.24702,0.02273 -0.0101,-0.04859 -0.019,-0.09712 -0.0284,-0.145727 -0.0556,0.0019 -0.10967,0.0035 -0.16952,0.0057 0.0563,-0.0034 0.11269,-0.0069 0.16899,-0.01035 5e-5,0.0013 1.9e-4,0.0026 0,0.0041 0.40185,-0.01246 0.68689,-0.01397 0.90125,-0.01447 h 0.003 c 0,-1.25e-4 0.003,-2.52e-4 0.003,-5.29e-4 0,-9.8e-5 0.003,-5.3e-4 0.003,-5.3e-4 v 0 c 0,-0.0011 0.003,-0.0024 0.0124,-0.0036 0.15187,-0.01725 0.30509,-0.01995 0.45784,-0.02687 -0.0413,0.0093 -0.0825,0.01754 -0.12454,0.02376 -0.0135,0.0021 -0.0302,0.0037 -0.0491,0.0052 0.0928,-0.0021 0.16039,-0.007 0.20359,-0.0181 0.009,-0.0036 0.0185,-0.0075 0.0274,-0.01138 -0.007,-2.46e-4 -0.0143,-0.0013 -0.0196,-0.0016 -0.0122,5.3e-4 -0.0243,0.0016 -0.0367,0.0021 0.005,-0.0011 0.009,-0.0021 0.0135,-0.0031 -0.0124,-0.0011 -0.0312,-0.0034 -0.0625,-0.0062 -0.004,-1.56e-4 -0.008,1.72e-4 -0.0124,0 -0.0431,-0.0019 -0.17172,-0.01466 -0.12867,-0.01138 0.07,0.0054 0.10978,0.0086 0.14108,0.01138 0.0275,0.0011 0.0549,0.0016 0.0822,0.0011 0.0214,-0.0051 0.0427,-0.01 0.064,-0.01551 0.004,-0.0043 0.007,-0.009 0.0103,-0.01394 -0.0101,-0.0027 -0.0185,-0.0053 -0.0289,-0.0083 -0.48567,0.02917 -0.97166,0.05816 -1.45728,0.08733 -0.0475,-0.247351 -0.0937,-0.49499 -0.14004,-0.74259 h -0.0729 c -0.0553,0.0053 -0.10882,0.0047 -0.1607,-5.29e-4 -0.11174,0.0011 -0.23964,5.29e-4 -0.39016,5.29e-4 h -0.35398 -0.11732 c -0.0148,9.8e-5 -0.0291,0 -0.0439,0 h -0.013 v -5.29e-4 c -0.84291,-0.0013 -0.71003,-0.04439 -0.44804,-0.987539 -0.34843,-0.0794 -0.3474,-0.09504 -0.72295,-0.298172 -0.13708,-0.03838 -0.25117,-0.07188 -0.10541,-0.03256 -0.3769,-0.145674 -0.26191,-0.09433 -0.48887,-0.220657 -0.33427,-0.126357 -0.82658,-0.321395 -0.44545,-0.193271 -0.027,-0.01418 -0.0836,-0.04301 -0.15449,-0.0801 -0.15947,-0.06107 -0.18709,-0.08337 -0.38709,-0.206706 0.0332,0.01183 0.0615,0.02111 0.0853,0.02894 -0.0301,-0.01521 -0.06,-0.03079 -0.0899,-0.04599 0.0482,0.02273 0.0962,0.04406 0.14417,0.06304 -0.0153,-0.0043 -0.0351,-0.01079 -0.0537,-0.01707 0.0222,0.0114 0.0447,0.02323 0.0672,0.03462 0.0934,0.02948 0.18275,0.07724 0.28009,0.08837 0.008,0.0011 0.0172,7.94e-4 0.0259,0.0016 -0.0379,-0.01662 -0.0756,-0.03378 -0.11266,-0.05219 -0.071,-0.0123 -0.13388,-0.02726 -0.18034,-0.04496 -0.008,-0.0028 -0.0143,-0.0059 -0.0217,-0.0088 0.0455,0.01214 0.0798,0.01601 0.1271,0.0155 -0.43934,-0.23433 -0.82529,-0.575201 -1.27846,-0.784965 -0.0524,-0.02426 -0.0536,-0.01098 -0.0274,0.02223 -0.21384,-0.172376 -0.27472,-0.228656 -0.0646,0.0052 0.0527,0.02853 0.10586,0.05677 0.15658,0.08837 0,2.11e-4 0,1.48e-4 0.003,5.29e-4 -0.04,-0.03712 -0.0683,-0.06612 -0.0868,-0.08837 0.18729,0.150778 0.47551,0.372797 0.79271,0.555005 -0.0103,-0.007 -0.032,-0.02085 -0.0238,-0.01601 0.0418,0.02445 0.0707,0.04216 0.10491,0.06253 0.004,0.0019 0.007,0.0033 0.0109,0.0052 0.0559,0.03345 0.10416,0.06332 0.14314,0.08733 -0.0352,-0.01249 -0.0703,-0.02511 -0.12039,-0.04289 0.17132,0.20035 -0.0659,0.04426 -0.34263,-0.16795 0.11006,0.05767 0.20751,0.103404 0.14626,0.05839 -0.0719,-0.0528 -0.15407,-0.08921 -0.23564,-0.126606 0.0308,0.02429 0.0585,0.04499 0.0889,0.06821 -0.0738,-0.03869 -0.15293,-0.08206 -0.19584,-0.109553 -0.68818,-0.440614 -0.6155,-0.445244 -0.45683,-0.335897 -0.0463,-0.03606 -0.0845,-0.06738 -0.12092,-0.09922 -0.14176,-0.08235 -0.27696,-0.163195 -0.33694,-0.202054 -0.48731,-0.03885 -0.84005,-0.09283 -0.22633,-0.127124 -0.0479,-0.01066 -0.0958,-0.02096 -0.14367,-0.03152 -0.14438,0 -0.28863,1.22e-4 -0.43304,0 -0.14446,-1.35e-4 -0.28916,7.94e-4 -0.43357,0 -0.28194,-0.0052 -0.56409,-1.06e-4 -0.84595,0.0067 -0.89178,0.01291 -1.78277,-0.03085 -2.67115,-0.108003 -0.29019,-0.03575 -0.34399,-0.04302 -0.65215,-0.07907 -0.10736,-0.01257 -0.21632,-0.0163 -0.32246,-0.03669 -0.23235,-0.04462 -0.92487,-0.199215 -0.69143,-0.160715 0.0469,0.0077 0.0934,0.01728 0.14004,0.02585 -0.10098,-0.02286 -0.20512,-0.03387 -0.30282,-0.06821 -0.47581,-0.167206 -0.75449,-0.303937 -1.08624,-0.556556 v 7.818644 h 32.66554 V 66.473462 Z m 9.15138,8.911603 c 0.0156,0.0059 0.18637,0.0057 0.29559,-0.0026 -0.0751,0.0019 -0.17603,0.0024 -0.29559,0.0026 z m 6.4213,-0.796851 c 0.0109,-0.02233 0.0193,-0.04085 0.0259,-0.05633 -0.0148,0.01394 -0.0265,0.02622 -0.0362,0.03721 -0.003,0.0099 -0.005,0.01715 -0.008,0.02739 0.006,-0.0026 0.0124,-0.0052 0.0185,-0.0083 z m 0.0259,-0.05633 c 0.005,-0.0049 0.0111,-0.01016 0.0169,-0.0155 0,-0.0016 0,-0.0031 0,-0.0047 0,5.29e-4 0,0.0016 0,0.0026 v -5.29e-4 c 0,-0.0065 -0.003,-0.01262 -0.003,-0.0181 -0.003,0.0016 -0.004,0.0037 -0.006,0.0052 -0.003,0.0084 -0.007,0.01889 -0.0124,0.03101 z m 0.28162,-0.790133 c 0,-5.29e-4 0,-0.0013 0,-0.0021 -0.003,-0.0077 -0.003,-0.01667 -0.006,-0.02585 0,5.29e-4 0,0.0016 -0.003,0.0021 0,0.0016 0,0.0031 0,0.0047 0.003,0.0013 0.003,0.0033 0.003,0.0057 0.003,0.0052 0.003,0.01035 0.004,0.01551 z m -0.73017,-1.432989 c -0.003,0.0066 -0.005,0.01585 -0.007,0.02585 0.006,-0.01045 0.0132,-0.02077 0.0201,-0.03101 1.8e-4,-0.0011 0,-0.0024 0,-0.0036 -0.003,-0.0019 -0.003,-0.0027 -0.004,-0.0026 -0.003,5.29e-4 -0.006,0.0047 -0.009,0.01138 z m -11.3094,-5.217768 c 0.10525,0.03232 0.20987,0.06734 0.31316,0.106452 0.0566,-0.0028 0.0971,-0.0057 0.13901,-0.0088 -0.0673,-0.02432 -0.13615,-0.04563 -0.20669,-0.06098 -0.0812,-0.01765 -0.16285,-0.02851 -0.24548,-0.03669 z m 0.86455,0.952397 c -0.23675,2.43e-4 -0.39939,0.02405 -0.24701,0.06098 0.11824,0.02864 0.23878,0.04192 0.3602,0.04909 0.0786,-0.01775 0.37947,-0.02294 0.5674,0.01291 0.0411,0.0013 0.0821,0.0024 0.12298,0.0052 -0.0361,-0.01691 -0.0728,-0.03285 -0.11007,-0.04754 -0.14584,-0.05752 -0.45675,-0.08086 -0.6935,-0.08062 z m 0.68059,0.122989 c -0.18907,-0.0061 -0.37954,-0.0019 -0.5674,-0.01291 -0.0293,0.0066 -0.0288,0.01461 0.0212,0.02326 0.23196,0.04017 0.46961,0.0316 0.70488,0.04496 -0.0193,-0.0091 -0.0387,-0.01884 -0.0584,-0.02739 -0.0262,-0.0114 -0.0608,-0.02037 -0.10025,-0.02791 z m 0.25993,-0.02635 c 2.6e-4,0.0013 0.006,0.0048 0.0151,0.01085 0.0706,0.04323 0.14467,0.08068 0.2186,0.118338 0.0101,0.0042 0.0193,0.0085 0.0289,0.01241 0.003,0.0011 0.006,0.0021 0.008,0.0031 -0.003,-0.0033 -0.003,-0.0046 -0.006,-0.0078 -0.0865,-0.05325 -0.26601,-0.143693 -0.26458,-0.136943 z m 0.65577,0.346234 c 0.008,0.0062 0.0153,0.01175 0.0233,0.0181 0.0857,0.03891 0.15219,0.06808 0.19844,0.08785 -0.014,-0.0088 -0.0283,-0.01823 -0.0429,-0.02635 -0.0382,-0.02135 -0.11906,-0.05579 -0.17881,-0.07958 z m 0.79322,0.386022 c 0.0335,0.01222 0.0672,0.02379 0.10078,0.03566 -0.008,-0.0033 -0.0169,-0.0063 -0.0254,-0.0098 0.13954,0.04438 -0.10028,-0.03485 -0.0755,-0.02585 z m 2.07843,0.815453 c 0.007,0.0019 0.0124,0.0043 0.018,0.0062 0.003,0.0013 0.003,0.0013 0.005,0.0026 -0.14626,-0.0993 0.22791,0.154135 0.16949,0.117824 -0.0654,-0.04059 -0.12716,-0.08571 -0.19225,-0.126609 z m -6.82646,1.825213 c -0.0236,7.93e-4 -0.046,0.0026 -0.0692,0.0026 0.0586,0.0037 0.14774,0.0064 0.15245,0.0031 0,-2.64e-4 0,-7.94e-4 -0.003,-0.0011 -0.003,-5.29e-4 -0.003,-0.0013 -0.008,-0.0021 -0.0235,-0.0033 -0.0471,-0.0034 -0.0708,-0.0026 z m 0.29406,0.162782 c 0.0185,0.0093 0.028,0.01323 0.0651,0.03307 -0.0111,-0.0088 -0.0312,-0.01228 -0.0331,-0.02635 0,-0.0028 0.003,-0.0028 0.005,-0.0016 0,-7.94e-4 -0.003,-0.0019 -0.004,-0.0026 -0.0114,-7.94e-4 -0.022,-0.0016 -0.0331,-0.0026 z m 0.49091,0.298172 c 0.007,0.0077 0.008,0.0089 0.0161,0.01707 0.1071,0.08955 0.20521,0.191349 0.32141,0.268719 0.0553,0.0368 0.11555,0.06516 0.17621,0.09302 -0.12477,-0.09833 -0.24823,-0.201104 -0.34208,-0.284736 0.0276,0.01344 0.0399,0.01767 0.0114,-0.0031 -0.0175,-0.01275 -0.0357,-0.02508 -0.0542,-0.03669 v 5.3e-4 c 0.013,0.01201 0.0262,0.02521 0.0408,0.03824 -0.0321,-0.01585 -0.097,-0.05205 -0.16952,-0.09302 z m 11.53366,0.433565 c -0.005,0.0016 -0.0111,0.01228 -0.007,0.01447 0.003,0.0016 0.006,0.003 0.009,0.0047 0.004,-0.005 0.009,-0.01027 0.0135,-0.0155 -0.004,-0.0013 -0.009,-0.0024 -0.014,-0.0036 0,-1.3e-5 0,-3e-6 -0.003,0 z m 0.78393,0.0011 c -0.003,0.01394 -0.006,0.0279 -0.009,0.04186 0.004,-0.008 0.007,-0.02535 0.009,-0.03669 0,-0.0016 6e-5,-0.0035 0,-0.0052 z m -0.74104,0.01035 c -0.0106,0.0034 -0.0209,0.0074 -0.0305,0.01241 0.13973,0.06454 0.21206,0.07014 0.24908,0.07286 0.01,-7.94e-4 0.019,-0.0011 0.0289,-0.0016 -0.0791,-0.03661 -0.16327,-0.06066 -0.24754,-0.08372 z m -8.15298,0.08578 c -0.51128,0.25442 -0.66093,0.565118 -0.014,1.012856 0.0311,-0.118276 0.0634,-0.248986 0.0956,-0.393258 -0.0595,0.06494 -0.11599,0.127934 -0.1819,0.196887 -0.19306,0.202012 -0.0315,-0.46646 0.10025,-0.816485 z m 8.41087,0.02376 c 0,5.29e-4 -0.003,0.0013 -0.003,0.0021 8e-5,7.94e-4 0,0.0019 0,0.0026 0,-0.0016 0.003,-0.003 0.003,-0.0047 z m -0.0161,0.0155 c -0.005,0.0053 -0.0106,0.01101 -0.0156,0.01707 0,0.0056 -0.003,0.01082 -0.003,0.01498 0.0103,-0.01154 0.0193,-0.02201 0.0259,-0.03152 -0.003,-1.16e-4 -0.005,-5.29e-4 -0.007,-5.29e-4 z m 0.014,5.29e-4 c -1.6e-4,0.0089 -8e-5,0.01929 -0.003,0.03307 0,-1.85e-4 0.003,-2.17e-4 0.003,-5.29e-4 0.004,-0.0098 0.006,-0.02072 0.006,-0.03204 -0.003,-1.22e-4 -0.004,-2.38e-4 -0.006,-5.29e-4 z m 0,0.03256 c 0,0.0019 -8e-5,0.0035 -0.003,0.0052 10e-5,0.0093 0,0.0186 0,0.02791 0.0159,0.0019 0.0331,0.0035 0.0543,0.0057 0.007,-0.004 0.0132,-0.008 0.0185,-0.01188 0.003,-0.0084 0.003,-0.01672 0.006,-0.02479 0,-0.0027 0.003,-0.0051 0.003,-0.0078 -0.0282,-0.0024 -0.0546,-2.54e-4 -0.0786,0.0057 z m 0.50025,0.144177 c -0.01,0.01064 -0.0185,0.0196 -0.0233,0.0279 0.006,0.0044 0.0124,0.0087 0.0164,0.01291 0.003,-0.01691 0.005,-0.03014 0.007,-0.04082 z m -11.04585,0.03152 c 0.0376,0.02066 0.0733,0.04499 0.11266,0.06201 0.006,0.0024 0.019,0.0074 0.0269,0.01035 -0.0447,-0.02328 -0.0697,-0.03664 -0.13954,-0.07235 z m 10.92234,0.0011 c -0.003,0.0094 -0.006,0.01855 -0.009,0.02791 0.0199,-0.0028 0.0396,-0.0046 0.0589,-0.0047 0.003,-0.0043 0.004,-0.0087 0.006,-0.01291 -0.0177,-0.0047 -0.0365,-0.0077 -0.0558,-0.01035 z m 0.0951,0.02635 v 0.0011 c 0.003,5.3e-4 0.005,0.0016 0.007,0.0021 -0.003,-0.0013 -0.005,-0.0019 -0.007,-0.0031 z m -10.47998,0.208775 c 0,0 0.003,0.0019 0.008,0.0041 0,-2.64e-4 -0.007,-0.0042 -0.007,-0.0041 z m 0.0196,0.01035 c 0.0135,0.009 0.0483,0.0312 0.0811,0.04806 v 5.29e-4 c 0.006,0.0029 0.0135,0.008 0.0175,0.0098 0.0109,0.0048 0.0225,0.0094 0.0336,0.01394 -0.0427,-0.02331 -0.0726,-0.0405 -0.1323,-0.07234 z m 0.0811,0.04806 c -0.0529,-0.02037 -0.0707,-0.02728 -0.10282,-0.03928 0.0185,0.0079 0.0365,0.0163 0.0553,0.02326 0.0159,0.0058 0.0528,0.01844 0.0476,0.01603 z m 11.00296,0.106452 c 0,0.0062 0,0.03506 -0.003,0.07493 0.006,-0.0028 0.0109,-0.0062 0.0161,-0.0093 -0.0111,-0.05444 -0.0138,-0.07211 -0.0145,-0.06563 z m -10.59109,0.04909 c 0.1052,0.07126 0.17524,0.104648 0.25165,0.131257 -0.0705,-0.03764 -0.15259,-0.08071 -0.25165,-0.131257 z m 10.56886,0.134874 c -0.003,0.0016 -0.004,0.0028 -0.006,0.0041 0,0.0034 -0.003,0.0068 -0.003,0.01035 0.003,-0.0026 0.004,-0.0048 0.005,-0.0067 0.003,-0.0026 0.003,-0.0053 0.004,-0.0078 z m -0.031,0.02791 c -0.003,-0.0032 -0.009,0.05173 -0.047,0.121442 1.3e-4,3.9e-5 0,-4.3e-5 0,0 0.004,-0.0035 0.009,-0.0076 0.0145,-0.01188 0,-0.0056 0.003,-0.01066 0.004,-0.01707 0.003,0.0038 0.003,0.0077 0.004,0.01138 0.006,-0.005 0.0109,-0.0098 0.0135,-0.01394 0.0138,-0.02201 0.013,-0.04115 0.0151,-0.06408 -0.003,-0.01701 -0.003,-0.02471 -0.004,-0.02585 z m -0.52761,0.05426 c -0.003,0.0031 -0.006,0.0064 -0.009,0.0098 0,0.0019 -0.003,0.0034 -0.003,0.0052 0.003,-0.0033 0.007,-0.0072 0.009,-0.0093 0,-0.0013 0.003,-0.0037 0.003,-0.0057 z m 0.41598,0.03462 -0.003,5.29e-4 c 0,5.29e-4 1.1e-4,0.0016 0.003,0.0021 v -0.0021 z m 0,0.0026 v 0 5.3e-4 z m 0,5.3e-4 c -0.003,0.0043 -0.005,0.0086 -0.007,0.01291 0.006,0.0011 0.0122,0.0021 0.018,0.0031 0,-0.0024 -1.3e-4,-0.0046 -0.003,-0.0067 -0.003,-0.0037 -0.006,-0.0062 -0.008,-0.0093 z m 0.0206,0.01188 c 0,0.0026 7e-5,0.0029 0,0.0062 0.003,5.29e-4 0.004,0.0016 0.007,0.0021 -0.003,-0.0024 -0.004,-0.0054 -0.006,-0.0083 z m -1.372,0.02687 v 5.29e-4 c -0.004,0.01037 -0.008,0.02061 -0.0119,0.031 0.005,-0.009 0.0109,-0.01878 0.0169,-0.02997 -0.003,-2.17e-4 -0.003,-0.0013 -0.005,-0.0016 z m 1.38853,0.0956 c -0.005,0.0013 -0.01,0.0028 -0.0145,0.0041 1.1e-4,0.0042 -1.3e-4,0.0087 0,0.01291 0.003,0.0011 0.003,0.004 0.003,0.0088 0.004,-0.0085 0.008,-0.01712 0.0119,-0.02585 z m -0.0151,0.01707 c -0.006,-0.0049 -0.0193,0.0173 -0.0398,0.03824 0,0.0021 0,0.0042 0.003,0.0062 0.006,-0.0013 0.0124,-0.0026 0.0185,-0.0041 0.005,-0.0036 0.009,-0.0071 0.0135,-0.01085 0,-0.0016 0,-0.0035 0.003,-0.0052 0.003,-0.0081 0.003,-0.01606 0.004,-0.02429 z m -0.006,0.02946 c 0,0.0028 -0.003,0.0055 -0.004,0.0083 -0.003,0.0011 -0.007,0.0019 -0.01,0.0026 -0.005,0.0043 -0.0109,0.0082 -0.0164,0.01241 0.003,0.0098 0.004,0.01958 0.005,0.02946 0.005,-0.0044 0.009,-0.0088 0.0135,-0.01344 0.004,-0.01161 0.009,-0.02572 0.0124,-0.04031 0,2.65e-4 0,7.94e-4 0,0.0011 z m -0.0336,0.0088 c -0.003,-0.01259 -0.007,-0.02519 -0.0114,-0.03772 -0.006,0.0013 -0.0101,0.003 -0.0156,0.0041 -0.003,0.0068 -0.005,0.01326 -0.008,0.01913 v 5.29e-4 c 0.003,0.01093 0.003,0.01556 0.003,0.02687 0.008,-0.0013 0.0151,-0.0027 0.0228,-0.0041 0,-0.0026 0.003,-0.0046 0.003,-0.0072 0,7.94e-4 0.003,0.0027 0.003,0.0041 0.003,-0.0019 0.003,-0.0039 0.005,-0.0057 z m -0.0383,-0.0078 c 0,5.29e-4 2e-5,0.0011 0,0.0016 0,-2.64e-4 0,-5.29e-4 0,-0.0011 z m 0,0.0016 c -0.006,0.0066 -0.0111,0.01283 -0.0169,0.0186 -8e-5,0.0019 0,0.0034 0,0.0052 0.005,-0.0011 0.0106,-0.0021 0.0161,-0.0031 0,-0.0016 0,-0.0031 0.003,-0.0047 0,-0.01037 -1.1e-4,-0.01053 0,-0.01601 z m -1.8619,0.509014 c 0.005,0.0053 0.0106,0.0097 0.0161,0.01394 0,-0.0045 0.003,-0.009 0.003,-0.01344 -0.007,-2.54e-4 -0.0119,-1.72e-4 -0.0185,-5.29e-4 z m -0.0966,0.03721 v 0.03462 c 0,-0.01151 0.003,-0.02313 0.003,-0.03462 0,9e-5 -0.003,-8.4e-5 -0.003,0 z m 1.86553,0.0181 c -0.023,0.03657 -0.0456,0.0733 -0.0682,0.110072 0.004,0.01315 0.007,0.029 0.009,0.04599 0.008,-0.01307 0.0161,-0.03482 0.0233,-0.05581 -0.0132,0.01122 -0.0193,0.01611 -0.0206,0.01707 0.003,-0.0021 0.0114,-0.01085 0.0217,-0.02119 0.006,-0.01699 0.0106,-0.03304 0.0135,-0.04289 -0.003,0.0065 -0.005,0.02003 -0.01,0.03979 0.007,-0.0074 0.014,-0.01513 0.0169,-0.02016 0.01,-0.01596 0.0106,-0.03513 0.0146,-0.05323 0.003,-0.0063 0.003,-0.02513 0,-0.01963 z m -1.76734,0.03152 c -0.003,7.94e-4 -0.003,0.0019 -0.006,0.0026 0.003,-2.62e-4 0.003,-1.59e-4 0.006,-5.29e-4 z m 1.21232,0.0036 v 0.0026 c 8e-5,-7.94e-4 0,-0.0019 0,-0.0026 z m -1.21182,0.05064 c -0.0156,0.0044 -0.0312,0.0087 -0.046,0.01447 0.0259,-2.65e-4 0.0359,-5.29e-4 0.046,-0.0016 -8e-5,-0.0043 8e-5,-0.0086 0,-0.01291 z m -0.56586,5.29e-4 c -0.0246,0.0019 -0.0493,0.003 -0.0739,0.0031 -0.0159,7.4e-5 -0.027,-4.2e-5 -0.0362,-5.29e-4 0.0524,0.04896 0.10287,0.09992 0.14211,0.160713 0.006,0.01013 0.0127,0.01881 0.0161,0.02997 0,0.0043 -0.008,0.0094 -0.005,0.01291 0.0145,0.01833 0.0896,0.04171 0.0661,0.04702 0.018,-5.8e-5 0.0364,5.29e-4 0.0548,0.0016 -0.0511,-0.07885 -0.10224,-0.157924 -0.15349,-0.23668 -0.004,-0.0058 -0.007,-0.01172 -0.0114,-0.01757 z m 0.4713,0.02222 c -0.004,0.01506 -0.007,0.02987 -0.0103,0.04392 0,0.01707 -0.003,0.03411 -0.003,0.05116 0.006,-0.0019 0.0124,-0.0039 0.0185,-0.0057 -0.003,-0.02979 -0.004,-0.05953 -0.005,-0.0894 z m 0.97721,0.01035 c -0.008,0.02164 -0.0164,0.04356 -0.0243,0.06511 0.003,-1.9e-5 0.005,2.4e-5 0.007,0 0.006,-0.03224 0.0111,-0.04887 0.0175,-0.06356 -6e-5,-5.29e-4 -3e-5,-0.0011 0,-0.0016 z m -0.87902,0.05581 c -0.0167,0.0094 -0.0322,0.0177 -0.0615,0.03617 -0.003,0.0019 -0.006,0.0011 -0.009,0.0011 -0.007,-2.9e-5 -0.019,0.0059 -0.0196,-0.0011 -1.4e-4,-0.0016 0,-0.0034 0,-0.0052 0,2.65e-4 -0.003,0.0019 -0.003,0.0021 -0.006,0.0011 -0.0116,0.0016 -0.0161,0.0026 0,2.64e-4 8e-5,0.0013 0,0.0016 -8e-5,0.0037 -0.008,0.0029 -0.014,0.0016 -0.0613,0.0094 -0.0911,7.93e-4 -0.14211,-0.02479 -0.005,-2.64e-4 -0.009,-0.0011 -0.014,-0.0021 -0.0376,0.05077 -0.0801,0.108841 -0.11525,0.156061 0.0399,0.0024 0.0795,0.0081 0.11628,0.01963 0.0397,-0.01643 0.10173,-0.05024 0.14004,-0.05994 0.0335,-0.0085 0.0684,-0.01119 0.10282,-0.0155 -0.004,0.0027 -0.0326,0.01553 -0.0119,0.01291 0.007,-0.0029 0.0127,-0.01 0.019,-0.0088 0.007,0.0021 -0.005,0.01257 -0.005,0.01757 0.006,0.0578 0.003,0.228925 0.0196,0.173117 0.0627,-0.215035 -0.006,-0.189368 -0.014,-0.190688 -0.003,-0.0011 0.007,-0.0082 0.0331,-0.03204 0,0.0016 -0.003,0.0029 -0.004,0.0047 -0.004,0.0056 -0.005,0.02748 -0.003,0.02119 0.005,-0.01019 0.009,-0.0208 0.0119,-0.03152 -0.003,0.0016 -0.003,0.0028 -0.005,0.0041 0.003,-0.0019 0.003,-0.0039 0.005,-0.0057 -1.3e-4,5.29e-4 0,0.0011 0,0.0016 0,-7.94e-4 0.003,-0.0019 0.003,-0.0026 v -5.29e-4 -5.29e-4 c -0.0257,-0.02103 -0.0254,-0.01725 -0.0124,-0.0739 z m 1.07746,0.189134 c -0.0204,0.02888 -0.0364,0.05792 -0.0305,0.0646 0.0119,-0.02702 0.0201,-0.04365 0.0109,-0.0186 8e-5,0.0061 0,0.01159 0,0.01757 0.006,-0.0024 0.014,-0.0069 0.0249,-0.01447 0.003,0.0072 0.009,0.02914 0.007,0.0217 -0.006,-0.02429 -0.0106,-0.04762 -0.0119,-0.0708 z m -5.30148,0.04031 c -0.0222,0.0027 -0.0445,0.0052 -0.0672,0.0078 0.0347,0.0472 0.0902,0.112533 0.15914,0.186552 0.0114,-0.03172 0.0246,-0.06497 0.0398,-0.100253 -0.0407,-0.02974 -0.0863,-0.06179 -0.13176,-0.09405 z m 5.62496,0.04547 c 0,0.0019 -0.003,0.0043 -0.003,0.0062 0.005,0.0013 0.0101,0.0029 0.0151,0.0041 -0.004,-0.004 -0.009,-0.0074 -0.0124,-0.01035 z m 0.13591,0.01601 c -0.003,0.0083 -0.004,0.0164 -0.008,0.02479 0.003,5.3e-4 0.003,0.0013 0.005,0.0021 0.003,-0.0024 0.003,-0.0048 0.004,-0.0072 v -0.01963 z m -0.76636,0.0072 c -0.0111,0.0021 -0.023,0.0051 -0.0351,0.0088 -0.006,0.0052 -0.0116,0.01058 -0.0175,0.01601 0.0236,-0.0029 0.0421,-0.01006 0.0527,-0.02479 z m 0.29972,0.02739 c -0.003,0.0016 -0.006,0.0049 -0.0103,0.0093 3e-5,7.93e-4 -5e-5,0.0024 0,0.0031 0.003,-0.0038 0.007,-0.0079 0.0103,-0.01188 z m -2.72645,0.03566 c -3e-5,0.003 0,0.0062 -0.003,0.0093 -0.003,0.01516 -0.003,0.03032 -0.004,0.04547 0.003,0.06331 0.004,0.126654 0.006,0.19172 0.0212,0.02059 0.0425,0.04073 0.0641,0.06149 0.003,-0.0715 0.004,-0.142954 0.007,-0.214455 -0.0236,-0.03107 -0.0466,-0.06233 -0.0698,-0.09354 z m 1.01494,0.0739 c 0.004,0.01651 0.007,0.03311 0.0103,0.04961 0.007,-0.0089 0.0145,-0.01947 0.0212,-0.02842 -0.0101,-0.006 -0.0177,-0.01275 -0.0274,-0.0186 -0.003,-7.94e-4 -0.003,-0.0019 -0.004,-0.0026 z m 1.61332,0.01601 c -0.005,0.0027 -0.008,0.0068 -0.0103,0.01188 0.004,-0.0042 0.007,-0.0084 0.0103,-0.01188 z m 0.0259,0.193271 c 0.0196,0.01209 0.0392,0.02434 0.0558,0.03979 0.0145,0.01357 -0.0351,-0.01897 -0.0527,-0.02842 0,-0.0037 -0.003,-0.0077 -0.003,-0.01138 z m -0.5452,0.03824 v 0.0217 z m -5.00795,0.08217 c -0.0127,0.008 0.22288,0.114628 0.31625,0.151929 0.007,-0.01767 0.0109,-0.03908 0.0146,-0.0646 -0.0907,-0.0258 -0.18989,-0.05328 -0.3085,-0.08423 -0.0135,-0.0035 -0.0204,-0.0043 -0.0222,-0.0031 z m 0.99737,0.0031 c -0.0402,0.02127 -0.0807,0.04187 -0.12144,0.06201 0.0106,0.0067 0.0217,0.01384 0.0315,0.01913 0.0789,0.04267 0.15063,0.08033 0.2186,0.115239 -0.006,-0.0355 -0.0316,-0.09396 -0.12867,-0.196371 z m 3.98373,0.03514 c -0.0329,0.02302 -0.0631,0.03261 -0.0367,0.02429 0.0114,0.01146 0.0249,-0.0013 0.0367,-0.02429 z m -4.97491,0.05478 v 5.29e-4 c -0.003,0.0021 0.0944,0.03588 0.13179,0.04186 0.0306,0.0049 0.0498,0.0074 0.078,0.01188 -0.056,-0.01487 -0.11975,-0.03163 -0.20256,-0.05219 -0.005,-0.0011 -0.006,-0.0019 -0.007,-0.0021 z m 0.35192,0.06563 c -0.007,5.29e-4 -0.014,0.0011 -0.0212,0.0016 0.004,0.0016 0.007,0.0021 0.0109,0.0036 0.003,-0.0019 0.007,-0.0033 0.0103,-0.0052 z m -0.0455,0.0026 c -0.003,8.2e-5 -0.003,5.29e-4 -0.004,5.29e-4 0,1.8e-4 0.003,1.61e-4 0.004,5.29e-4 1.8e-4,-2.64e-4 0,-7.94e-4 0,-0.0011 z m 0.19484,0.04754 c -0.0156,0.0011 -0.0225,0.0016 -0.0201,0.0016 0,5.3e-4 -0.003,0.0016 -0.004,0.0021 0.004,0.0011 0.008,0.0021 0.0114,0.0031 0.004,-0.0021 0.009,-0.0046 0.0124,-0.0062 z m -0.0424,0.0088 c -0.12144,0.04143 -0.23905,0.09859 -0.35811,0.148312 0.0699,-0.02828 0.1429,-0.04774 0.21447,-0.07183 0.0364,-0.01751 0.11168,-0.05013 0.16018,-0.07235 -0.005,-0.0013 -0.0103,-0.0027 -0.0161,-0.0041 z m 0.39378,0.04289 c 0.003,0.0011 0.006,0.0021 0.008,0.0031 0.0345,0.0016 0.0645,0.0026 0.10748,0.0052 -0.0585,-0.0046 -0.0724,-0.0052 -0.11523,-0.0083 z m 2.57246,0.08682 c 0.0364,0.03373 0.0739,0.06818 0.1111,0.102319 -0.14494,0.06779 -0.26569,0.124513 -0.37052,0.166399 0.0727,-0.06172 0.15827,-0.150722 0.25942,-0.268718 z m -2.19159,0.03256 c 0,5.29e-4 0.0528,0.01228 0.12038,0.02739 v -5.29e-4 c -0.0327,-0.0079 -0.0653,-0.01574 -0.0982,-0.02273 -0.0151,-0.0032 -0.0222,-0.0043 -0.0222,-0.0041 z m 0.49506,0.02585 c 0,0.01066 0.003,0.02138 0.003,0.03204 0,0.0047 0.003,0.009 0.008,0.01344 0.0456,-5.29e-4 0.0986,-0.0011 0.16639,-0.0016 -0.0669,-0.01704 -0.12062,-0.03004 -0.17674,-0.04392 z m 0.26456,0.04341 c -0.0424,1.43e-4 -0.0512,1.14e-4 -0.0863,5.29e-4 0.0494,0.01267 0.11147,0.02986 0.16742,0.04444 -0.11432,-5.29e-4 -0.21992,-0.01193 -0.33125,-0.03876 0.0185,0.01392 0.0566,0.02627 0.10697,0.03669 -0.068,-0.0042 -0.13584,-0.01095 -0.2041,-0.0217 0.32139,0.0663 0.68913,0.132641 0.5462,0.05839 0.007,2.61e-4 0.0122,0.0013 0.018,0.0016 -0.0135,-0.0035 -0.0243,-0.0065 -0.0372,-0.0098 0.007,0.003 0.0122,0.0061 0.0169,0.0088 -0.12707,-0.0066 -0.25299,-0.01863 -0.34107,-0.03669 0.077,0.0048 0.15409,0.0061 0.23101,0.0041 -0.003,-5.29e-4 -0.003,-0.0019 -0.005,-0.0026 0.0124,4.5e-5 0.0249,-1.64e-4 0.0377,-5.29e-4 -0.0324,-0.01294 -0.0704,-0.02702 -0.11938,-0.04444 z m 0.17986,0.07131 v -5.29e-4 c -0.0151,-0.0071 -0.0354,-0.01569 -0.0584,-0.02479 -0.0109,5.29e-4 -0.0222,0.0013 -0.0331,0.0016 0.0298,0.0079 0.0586,0.01542 0.0904,0.02376 v 0 z m -0.44754,-0.06925 c 0.005,0.0013 0.0111,0.0029 0.0161,0.0041 -0.003,-0.0013 -0.003,-0.0028 -0.005,-0.0041 -0.003,3.7e-5 -0.007,-1.3e-5 -0.0109,0 z m 1.91307,0.09664 c 0.0405,0.04103 0.004,0.06677 -0.0646,0.08475 0.035,-0.02111 0.0561,-0.04826 0.0646,-0.08475 z m -1.05111,0.163811 c 0,5.29e-4 0.003,0.0011 0.003,0.0016 0.003,0.0079 0.007,0.01508 0.0109,0.0217 -0.007,-0.0036 -0.0122,-0.0096 -0.0124,-0.02016 0,-0.0013 0,-0.0021 0,-0.0031 z m 0.34573,0.0036 c 1.6e-4,0.0024 0,0.0044 0,0.0067 0.0122,-7.93e-4 0.0198,-0.0019 0.0315,-0.0026 -0.0103,5.3e-5 -0.0206,-0.0013 -0.0299,-0.0041 0,-6.6e-5 0,1.01e-4 -0.003,0 z" />
    </clipPath>
  </defs>
  <g
     inkscape:label="Layer 1"
     inkscape:groupmode="layer"
     id="layer1"
     transform="translate(2.6463528,-15.081195)">
    <circle
       style="fill:#000000;stroke:#000000;stroke-width:1.15003;stroke-linecap:square;stroke-miterlimit:0"
       id="path1"
       cx="68.163971"
       cy="92.604164"
       r="4.250216" />
    <circle
       style="fill:#000000;stroke:#000000;stroke-width:1.15003;stroke-linecap:square;stroke-miterlimit:0"
       id="path1-5"
       cx="119.50891"
       cy="38.445965"
       r="4.250216" />
    <circle
       style="fill:#000000;stroke:#000000;stroke-width:1.15003;stroke-linecap:square;stroke-miterlimit:0"
       id="path1-5-4"
       cx="119.50891"
       cy="147.98068"
       r="4.250216" />
    <circle
       style="fill:#000000;stroke:#000000;stroke-width:1.15003;stroke-linecap:square;stroke-miterlimit:0"
       id="path1-8"
       cx="-291.16724"
       cy="-93.822479"
       r="4.250216"
       transform="scale(-1)" />
    <circle
       style="fill:#000000;stroke:#000000;stroke-width:1.15003;stroke-linecap:square;stroke-miterlimit:0"
       id="path1-5-3"
       cx="-239.82228"
       cy="-147.98068"
       r="4.250216"
       transform="scale(-1)" />
    <circle
       style="fill:#000000;stroke:#000000;stroke-width:1.15003;stroke-linecap:square;stroke-miterlimit:0"
       id="path1-5-4-7"
       cx="-239.82228"
       cy="-38.445965"
       r="4.250216"
       transform="scale(-1)" />
    <path
       style="fill:none;stroke:#000000;stroke-width:1.85208;stroke-linecap:butt;stroke-linejoin:miter;stroke-dasharray:none;stroke-opacity:1"
       d="M 119.50891,38.445963 291.16723,93.822479"
       id="path2" />
    <path
       style="fill:none;stroke:#000000;stroke-width:1.85208;stroke-linecap:butt;stroke-linejoin:miter;stroke-dasharray:none;stroke-opacity:1;marker-end:url(#ConcaveTriangle)"
       d="m 233.33728,75.166689 21.27777,6.864154"
       id="path3" />
    <path
       style="fill:none;stroke:#000000;stroke-width:1.85208;stroke-linecap:butt;stroke-linejoin:miter;stroke-dasharray:none;stroke-opacity:1;marker-end:url(#ConcaveTriangle-3)"
       d="m 261.56684,67.353755 21.27777,6.864154"
       id="path3-0"
       clip-path="url(#clipPath64)"
       transform="rotate(163.6647,274.53317,65.939606)" />
    <path
       style="fill:none;stroke:#000000;stroke-width:1.85208;stroke-linecap:butt;stroke-linejoin:miter;stroke-dasharray:none;stroke-opacity:1"
       d="M 239.82228,38.445963 119.50891,147.98068"
       id="path4" />
    <path
       style="fill:none;stroke:#000000;stroke-width:1.85208;stroke-linecap:butt;stroke-linejoin:miter;stroke-dasharray:none;stroke-opacity:1;marker-end:url(#marker6)"
       d="M 187.66537,85.930225 171.66581,100.49642"
       id="path5" />
    <path
       style="fill:none;stroke:#000000;stroke-width:1.85208;stroke-linecap:butt;stroke-linejoin:miter;stroke-dasharray:none;stroke-opacity:1"
       d="M 119.50891,147.98068 V 38.445963"
       id="path8" />
    <path
       style="fill:none;stroke:#000000;stroke-width:0.264583px;stroke-linecap:butt;stroke-linejoin:miter;stroke-opacity:1"
       d="M 119.50891,101.46411 V 71.909"
       id="path10" />
    <path
       style="fill:none;stroke:#000000;stroke-width:1.8606;stroke-linecap:butt;stroke-linejoin:miter;stroke-dasharray:none;stroke-opacity:1;marker-end:url(#marker12)"
       d="M 119.47572,105.31929 V 90.405482"
       id="path11" />
    <path
       style="fill:none;stroke:#000000;stroke-width:1.85208;stroke-linecap:butt;stroke-linejoin:miter;stroke-dasharray:none;stroke-opacity:1"
       d="m 68.163971,92.604163 51.344939,-54.1582"
       id="path13" />
    <path
       style="fill:none;stroke:#000000;stroke-width:1.85208;stroke-linecap:butt;stroke-linejoin:miter;stroke-dasharray:none;stroke-opacity:1;marker-start:url(#ConcaveTriangle)"
       d="M 97.539714,61.654747 82.777445,77.22586"
       id="path14" />
    <path
       style="fill:none;stroke:#000000;stroke-width:1.85208;stroke-linecap:butt;stroke-linejoin:miter;stroke-dasharray:none;stroke-opacity:1"
       d="M 68.163971,92.604163 119.50891,147.98068"
       id="path15" />
    <path
       style="fill:none;stroke:#000000;stroke-width:1.85208;stroke-linecap:butt;stroke-linejoin:miter;stroke-dasharray:none;stroke-opacity:1;marker-end:url(#ConcaveTriangle)"
       d="m 81.642655,107.08981 17.133373,18.47867"
       id="path16" />
    <path
       style="fill:none;stroke:#000000;stroke-width:1.85208;stroke-linecap:butt;stroke-linejoin:miter;stroke-dasharray:none;stroke-opacity:1"
       d="M 119.50891,38.445963 H 239.82228"
       id="path17" />
    <path
       style="fill:none;stroke:#000000;stroke-width:1.85208;stroke-linecap:butt;stroke-linejoin:miter;stroke-dasharray:none;stroke-opacity:1;marker-end:url(#ConcaveTriangle)"
       d="m 158.20299,38.445963 h 24.94932"
       id="path18" />
    <path
       style="fill:none;stroke:#000000;stroke-width:1.85208;stroke-linecap:butt;stroke-linejoin:miter;stroke-dasharray:none;stroke-opacity:1"
       d="M 119.50891,147.98068 H 239.82228"
       id="path19" />
    <path
       style="fill:none;stroke:#000000;stroke-width:1.85208;stroke-linecap:butt;stroke-linejoin:miter;stroke-dasharray:none;stroke-opacity:1;marker-end:url(#ConcaveTriangle)"
       d="m 165.83755,147.98068 h 17.84086"
       id="path20" />
    <path
       style="fill:none;stroke:#000000;stroke-width:1.85208;stroke-linecap:butt;stroke-linejoin:miter;stroke-dasharray:none;stroke-opacity:1"
       d="M 239.82228,147.98068 291.16723,93.822479"
       id="path21" />
    <path
       style="fill:none;stroke:#000000;stroke-width:1.85208;stroke-linecap:butt;stroke-linejoin:miter;stroke-dasharray:none;stroke-opacity:1;marker-end:url(#ConcaveTriangle)"
       d="m 251.6624,135.49183 11.88458,-12.53576"
       id="path22" />
    <circle
       style="fill:none;stroke:#000000;stroke-width:1.85208;stroke-linecap:square;stroke-miterlimit:0;stroke-dasharray:none"
       id="path24"
       cx="261.28253"
       cy="38.521122"
       r="22.513887" />
    <path
       style="fill:none;stroke:#000000;stroke-width:1.85208;stroke-linecap:butt;stroke-linejoin:miter;stroke-dasharray:none;stroke-opacity:1;marker-end:url(#ConcaveTriangle-3-8)"
       d="m 261.56684,67.353755 21.27777,6.864154"
       id="path3-0-6"
       clip-path="url(#clipPath64-9)"
       transform="rotate(-16.3353,152.836,906.48335)" />
    <circle
       style="fill:none;stroke:#000000;stroke-width:1.85208;stroke-linecap:square;stroke-miterlimit:0;stroke-dasharray:none"
       id="path24-6"
       cx="-46.461525"
       cy="-93.060699"
       r="22.513887"
       transform="scale(-1)" />
    <path
       style="fill:none;stroke:#000000;stroke-width:1.85208;stroke-linecap:butt;stroke-linejoin:miter;stroke-dasharray:none;stroke-opacity:1"
       d="m 281.89544,29.466656 c 0.46658,1.38469 0.93315,2.769388 1.24999,4.27848 0.31683,1.509092 0.48391,3.142521 0.65099,4.775985"
       id="path25"
       inkscape:path-effect="#path-effect26"
       inkscape:original-d="m 281.89544,29.466656 c 0.46657,1.384692 0.93316,2.769386 1.39973,4.154077 0.16708,1.633496 0.33416,3.266925 0.50125,4.900388" />
    <text
       xml:space="preserve"
       style="font-size:12.7px;line-height:1.25;font-family:'Latin Modern Math';-inkscape-font-specification:'Latin Modern Math';stroke-width:0.264583"
       x="116.34367"
       y="21.298613"
       id="text65"><tspan
         sodipodi:role="line"
         id="tspan65"
         style="stroke-width:0.264583"
         x="116.34367"
         y="21.298613"></tspan></text>
    <text
       xml:space="preserve"
       style="font-size:19.7556px;line-height:1.25;font-family:'Latin Modern Math';-inkscape-font-specification:'Latin Modern Math';stroke-width:0.264583"
       x="111.41553"
       y="28.220663"
       id="text66"><tspan
         sodipodi:role="line"
         id="tspan66"
         style="stroke-width:0.264583"
         x="111.41553"
         y="28.220663">v<tspan
   style="font-size:65%;baseline-shift:sub"
   id="tspan67">1</tspan></tspan></text>
    <text
       xml:space="preserve"
       style="font-size:19.7556px;line-height:1.25;font-family:'Latin Modern Math';-inkscape-font-specification:'Latin Modern Math';stroke-width:0.264583"
       x="221.64598"
       y="30.084291"
       id="text68"><tspan
         sodipodi:role="line"
         id="tspan68"
         style="stroke-width:0.264583"
         x="221.64598"
         y="30.084291">v<tspan
   style="font-size:65%;baseline-shift:sub"
   id="tspan69">2</tspan></tspan></text>
    <text
       xml:space="preserve"
       style="font-size:19.7556px;line-height:1.25;font-family:'Latin Modern Math';-inkscape-font-specification:'Latin Modern Math';stroke-width:0.264583"
       x="282.47287"
       y="82.800034"
       id="text70"><tspan
         sodipodi:role="line"
         id="tspan70"
         style="stroke-width:0.264583"
         x="282.47287"
         y="82.800034">v<tspan
   style="font-size:65%;baseline-shift:sub"
   id="tspan71">3</tspan></tspan></text>
    <text
       xml:space="preserve"
       style="font-size:19.7556px;line-height:1.25;font-family:'Latin Modern Math';-inkscape-font-specification:'Latin Modern Math';stroke-width:0.264583"
       x="231.39503"
       y="164.68015"
       id="text72"><tspan
         sodipodi:role="line"
         id="tspan72"
         style="stroke-width:0.264583"
         x="231.39503"
         y="164.68015">v<tspan
   style="font-size:65%;baseline-shift:sub"
   id="tspan73">4</tspan></tspan></text>
    <text
       xml:space="preserve"
       style="font-size:19.7556px;line-height:1.25;font-family:'Latin Modern Math';-inkscape-font-specification:'Latin Modern Math';stroke-width:0.264583"
       x="110.99362"
       y="164.53889"
       id="text74"><tspan
         sodipodi:role="line"
         id="tspan74"
         style="stroke-width:0.264583"
         x="110.99362"
         y="164.53889">v<tspan
   style="font-size:65%;baseline-shift:sub"
   id="tspan75">5</tspan></tspan></text>
    <text
       xml:space="preserve"
       style="font-size:19.7556px;line-height:1.25;font-family:'Latin Modern Math';-inkscape-font-specification:'Latin Modern Math';stroke-width:0.264583"
       x="45.027836"
       y="95.201218"
       id="text76"><tspan
         sodipodi:role="line"
         id="tspan76"
         style="stroke-width:0.264583"
         x="45.027836"
         y="95.201218">v<tspan
   style="font-size:65%;baseline-shift:sub"
   id="tspan77">6</tspan></tspan></text>
    <text
       xml:space="preserve"
       style="font-size:19.7556px;line-height:1.25;font-family:'Latin Modern Math';-inkscape-font-specification:'Latin Modern Math';stroke-width:0.264583"
       x="-2.88342"
       y="94.115059"
       id="text78"><tspan
         sodipodi:role="line"
         id="tspan78"
         style="stroke-width:0.264583"
         x="-2.88342"
         y="94.115059">x<tspan
   style="font-size:65%;baseline-shift:sub"
   id="tspan79">10</tspan></tspan></text>
    <text
       xml:space="preserve"
       style="font-size:19.7556px;line-height:1.25;font-family:'Latin Modern Math';-inkscape-font-specification:'Latin Modern Math';stroke-width:0.264583"
       x="176.27463"
       y="26.763689"
       id="text78-2"><tspan
         sodipodi:role="line"
         id="tspan78-4"
         style="stroke-width:0.264583"
         x="176.27463"
         y="26.763689">x<tspan
   style="font-size:65%;baseline-shift:sub"
   id="tspan81">1</tspan></tspan></text>
    <text
       xml:space="preserve"
       style="font-size:19.7556px;line-height:1.25;font-family:'Latin Modern Math';-inkscape-font-specification:'Latin Modern Math';stroke-width:0.264583"
       x="245.46877"
       y="71.803207"
       id="text78-2-4"><tspan
         sodipodi:role="line"
         id="tspan78-4-4"
         style="stroke-width:0.264583"
         x="245.46877"
         y="71.803207">x<tspan
   style="font-size:65%;baseline-shift:sub"
   id="tspan80-4">2</tspan></tspan></text>
    <text
       xml:space="preserve"
       style="font-size:19.7556px;line-height:1.25;font-family:'Latin Modern Math';-inkscape-font-specification:'Latin Modern Math';stroke-width:0.264583"
       x="157.96593"
       y="89.262199"
       id="text78-2-4-5"><tspan
         sodipodi:role="line"
         id="tspan78-4-4-1"
         style="stroke-width:0.264583"
         x="157.96593"
         y="89.262199">x<tspan
   style="font-size:65%;baseline-shift:sub"
   id="tspan87">4</tspan></tspan></text>
    <text
       xml:space="preserve"
       style="font-size:19.7556px;line-height:1.25;font-family:'Latin Modern Math';-inkscape-font-specification:'Latin Modern Math';stroke-width:0.264583"
       x="288.66757"
       y="40.755871"
       id="text78-2-4-5-0"><tspan
         sodipodi:role="line"
         id="tspan78-4-4-1-6"
         style="stroke-width:0.264583"
         x="288.66757"
         y="40.755871">x<tspan
   style="font-size:65%;baseline-shift:sub"
   id="tspan86">3</tspan></tspan></text>
    <text
       xml:space="preserve"
       style="font-size:19.7556px;line-height:1.25;font-family:'Latin Modern Math';-inkscape-font-specification:'Latin Modern Math';stroke-width:0.264583"
       x="96.080978"
       y="88.979698"
       id="text78-2-4-6"><tspan
         sodipodi:role="line"
         id="tspan78-4-4-6"
         style="stroke-width:0.264583"
         x="96.080978"
         y="88.979698">x<tspan
   style="font-size:65%;baseline-shift:sub"
   id="tspan82">8</tspan></tspan></text>
    <text
       xml:space="preserve"
       style="font-size:19.7556px;line-height:1.25;font-family:'Latin Modern Math';-inkscape-font-specification:'Latin Modern Math';stroke-width:0.264583"
       x="77.177536"
       y="136.26517"
       id="text78-2-4-6-6"><tspan
         sodipodi:role="line"
         id="tspan78-4-4-6-4"
         style="stroke-width:0.264583"
         x="77.177536"
         y="136.26517">x<tspan
   style="font-size:65%;baseline-shift:sub"
   id="tspan83">7</tspan></tspan></text>
    <text
       xml:space="preserve"
       style="font-size:19.7556px;line-height:1.25;font-family:'Latin Modern Math';-inkscape-font-specification:'Latin Modern Math';stroke-width:0.264583"
       x="74.726799"
       y="55.327679"
       id="text78-2-4-6-6-3"><tspan
         sodipodi:role="line"
         id="tspan78-4-4-6-4-1"
         style="stroke-width:0.264583"
         x="74.726799"
         y="55.327679">x<tspan
   style="font-size:65%;baseline-shift:sub"
   id="tspan84">9</tspan></tspan></text>
    <text
       xml:space="preserve"
       style="font-size:19.7556px;line-height:1.25;font-family:'Latin Modern Math';-inkscape-font-specification:'Latin Modern Math';stroke-width:0.264583"
       x="96.318047"
       y="24.481918"
       id="text85"><tspan
         sodipodi:role="line"
         id="tspan85"
         style="stroke-width:0.264583"
         x="96.318047"
         y="24.481918" /></text>
    <text
       xml:space="preserve"
       style="font-size:19.7556px;line-height:1.25;font-family:'Latin Modern Math';-inkscape-font-specification:'Latin Modern Math';stroke-width:0.264583"
       x="245.08592"
       y="113.83395"
       id="text88"><tspan
         sodipodi:role="line"
         id="tspan88"
         style="stroke-width:0.264583"
         x="245.08592"
         y="113.83395">x<tspan
   style="font-size:65%;baseline-shift:sub"
   id="tspan89">5</tspan></tspan></text>
    <text
       xml:space="preserve"
       style="font-size:19.7556px;line-height:1.25;font-family:'Latin Modern Math';-inkscape-font-specification:'Latin Modern Math';stroke-width:0.264583"
       x="177.86508"
       y="137.74031"
       id="text88-3"><tspan
         sodipodi:role="line"
         id="tspan88-7"
         style="stroke-width:0.264583"
         x="177.86508"
         y="137.74031">x<tspan
   style="font-size:65%;baseline-shift:sub"
   id="tspan90">6</tspan></tspan></text>
  </g>
</svg>
