<?xml version="1.0" encoding="UTF-8" standalone="no"?>
<!-- Created with Inkscape (http://www.inkscape.org/) -->

<svg
   width="1000"
   height="650"
   viewBox="0 0 264.58333 171.97916"
   version="1.1"
   id="svg5"
   sodipodi:docname="set-sym-difference.svg"
   inkscape:version="1.2.1 (9c6d41e, 2022-07-14)"
   xmlns:inkscape="http://www.inkscape.org/namespaces/inkscape"
   xmlns:sodipodi="http://sodipodi.sourceforge.net/DTD/sodipodi-0.dtd"
   xmlns="http://www.w3.org/2000/svg"
   xmlns:svg="http://www.w3.org/2000/svg">
  <sodipodi:namedview
     id="namedview7"
     pagecolor="#ffffff"
     bordercolor="#666666"
     borderopacity="1.0"
     inkscape:showpageshadow="2"
     inkscape:pageopacity="0.0"
     inkscape:pagecheckerboard="0"
     inkscape:deskcolor="#d1d1d1"
     inkscape:document-units="mm"
     showgrid="false"
     inkscape:zoom="0.5946522"
     inkscape:cx="405.27892"
     inkscape:cy="570.08113"
     inkscape:window-width="1920"
     inkscape:window-height="1052"
     inkscape:window-x="0"
     inkscape:window-y="0"
     inkscape:window-maximized="0"
     inkscape:current-layer="layer1" />
  <defs
     id="defs2" />
  <g
     inkscape:label="Layer 1"
     inkscape:groupmode="layer"
     id="layer1">
    <circle
       style="opacity:1;fill:none;stroke:#000000;stroke-width:2.80879;stroke-dasharray:none"
       id="path376"
       cx="80.521873"
       cy="86.463066"
       r="79.117477" />
    <circle
       style="fill:none;stroke:#000000;stroke-width:2.80879;stroke-dasharray:none"
       id="path376-7"
       cx="183.61652"
       cy="86.463066"
       r="79.117477" />
    <text
       xml:space="preserve"
       style="font-size:25.4px;line-height:1.25;font-family:'Latin Modern Math';-inkscape-font-specification:'Latin Modern Math';stroke-width:0.264583"
       x="10.065113"
       y="20.086203"
       id="text1240"><tspan
         sodipodi:role="line"
         id="tspan1238"
         style="font-size:25.4px;stroke-width:0.264583"
         x="10.065113"
         y="20.086203">A</tspan></text>
    <text
       xml:space="preserve"
       style="font-size:25.4px;line-height:1.25;font-family:'Latin Modern Math';-inkscape-font-specification:'Latin Modern Math';stroke-width:0.264583"
       x="236.98332"
       y="20.086203"
       id="text1240-4"><tspan
         sodipodi:role="line"
         id="tspan1238-8"
         style="font-size:25.4px;stroke-width:0.264583"
         x="236.98332"
         y="20.086203">B</tspan></text>
    <path
       style="opacity:0.5;fill:#228b22;stroke:none;stroke-width:16.8166;stroke-dasharray:none"
       d="M 277.47312,618.50704 C 260.49857,616.94868 231.194,610.68599 213.14695,604.75987 114.27156,572.29211 39.092611,488.11611 17.715229,385.93988 4.407874,322.33549 13.176197,255.16166 42.410052,196.75367 82.981,115.69464 157.15137,58.887862 248.04415,39.259355 c 15.33081,-3.310725 22.64288,-3.821812 55.49462,-3.878874 33.21037,-0.05768 40.09928,0.408677 56.33546,3.813766 45.36831,9.514748 91.17435,30.481848 125.23686,57.325497 l 4.1577,3.276554 -15.10241,15.686402 c -40.72623,42.3011 -66.92835,92.00041 -79.13569,150.10196 -5.80763,27.64177 -7.33758,73.77361 -3.37809,101.85701 5.35081,37.95135 16.83932,73.00913 34.71821,105.94429 13.75158,25.33211 28.05514,44.55596 50.84485,68.33493 l 11.50026,11.9995 -7.24457,5.88438 c -28.0096,22.75073 -74.64598,44.33683 -114.8705,53.16891 -27.23461,5.97989 -62.04849,8.21938 -89.12773,5.73336 z"
       id="path10045"
       transform="scale(0.26458333)" />
    <path
       style="opacity:0.5;fill:#228b22;stroke-width:16.8166"
       d="M 661.45956,617.84993 C 609.68695,611.8157 554.94177,589.60946 515.82682,558.77701 l -6.32713,-4.98737 15.57624,-16.38541 c 43.30216,-45.55168 70.14814,-99.95192 80.55532,-163.23593 4.91573,-29.8916 3.76332,-80.79641 -2.48025,-109.55825 -6.1908,-28.51879 -13.09123,-48.02023 -26.39059,-74.58301 -14.49721,-28.95519 -29.30294,-50.02273 -51.15027,-72.78328 -9.19803,-9.58251 -15.97679,-17.936868 -15.06393,-18.565247 0.91287,-0.628379 5.78992,-4.237218 10.83789,-8.019642 36.77786,-27.55749 84.3803,-46.848933 132.47758,-53.688081 27.44164,-3.902038 72.28342,-2.737403 96.99739,2.519225 55.38729,11.780803 105.23138,37.882965 144.32855,75.581435 48.00378,46.28643 77.32396,101.54704 87.95165,165.76498 3.64889,22.04853 4.07092,66.9497 0.82189,87.44607 -15.39083,97.09274 -74.01419,177.61974 -160.79091,220.86778 -49.12956,24.48534 -108.08975,34.94932 -161.71069,28.69965 z"
       id="path433"
       transform="scale(0.26458333)" />
  </g>
</svg>
